<svg width="16" height="16" viewBox="0 0 16 16" fill="none" xmlns="http://www.w3.org/2000/svg">
<rect width="16" height="16" rx="2" fill="white"/>
<path d="M1.45053 7.13349C1.15019 7.13349 1 7.04761 1 6.87588C1 6.80953 1.02469 6.75293 1.07406 6.70609C1.12343 6.65925 1.20162 6.61047 1.30858 6.55972C1.39089 6.51679 1.46288 6.47384 1.52459 6.43091C1.58631 6.38407 1.65215 6.31382 1.72209 6.22014L2.45035 5.26581C2.4915 5.19946 2.51206 5.137 2.51206 5.07845C2.51206 5.016 2.49562 4.96721 2.46269 4.93208L1.7838 4.00703C1.6974 3.88602 1.62334 3.80405 1.56162 3.76112C1.50403 3.71429 1.42792 3.6733 1.33327 3.63817C1.25921 3.60696 1.19957 3.56792 1.15429 3.52108C1.11316 3.47424 1.09258 3.40984 1.09258 3.32787C1.09258 3.21077 1.13578 3.12686 1.22218 3.07611C1.31271 3.02536 1.46083 3 1.66654 3H3.09837C3.29999 3 3.44194 3.02733 3.52422 3.08197C3.60652 3.13272 3.64765 3.20686 3.64765 3.30445C3.64765 3.39033 3.59418 3.47424 3.48719 3.55621C3.40079 3.63037 3.35758 3.70063 3.35758 3.76698C3.35758 3.81382 3.37405 3.85871 3.40696 3.90164L3.60445 4.17681C3.65795 4.24316 3.7032 4.27635 3.74023 4.27635C3.77726 4.27635 3.81636 4.24513 3.85749 4.18267L4.0735 3.87822C4.11053 3.83138 4.12904 3.77869 4.12904 3.72014C4.12904 3.64208 4.08584 3.57183 3.99944 3.50937C3.93362 3.46253 3.88425 3.4196 3.85132 3.38056C3.82253 3.33763 3.80812 3.2908 3.80812 3.24005C3.80812 3.15028 3.8431 3.08977 3.91304 3.05855C3.9871 3.02342 4.09409 3.00585 4.23396 3.00585H5.07331C5.3778 3.00585 5.53002 3.09173 5.53002 3.26347C5.53002 3.33372 5.50533 3.39227 5.45596 3.43911C5.40658 3.48595 5.32843 3.53279 5.22143 3.57962C5.14328 3.61475 5.07331 3.65379 5.0116 3.69672C4.954 3.73965 4.88611 3.81382 4.80793 3.9192L4.20928 4.69204C4.17637 4.74279 4.1599 4.79351 4.1599 4.84426C4.1599 4.8989 4.17637 4.95159 4.20928 5.00234L5.06097 6.16745C5.13915 6.27283 5.20704 6.347 5.26464 6.38993C5.32225 6.42897 5.39631 6.46799 5.48682 6.50703C5.565 6.53824 5.62259 6.57923 5.65962 6.62998C5.70078 6.67681 5.72134 6.74122 5.72134 6.82318C5.72134 6.93248 5.67814 7.01445 5.59173 7.06909C5.50945 7.11984 5.36338 7.1452 5.15354 7.1452H3.74023C3.53451 7.1452 3.38844 7.11984 3.30204 7.06909C3.21564 7.01834 3.17243 6.94222 3.17243 6.84075C3.17243 6.74316 3.23005 6.65534 3.34524 6.57728C3.42342 6.51873 3.4625 6.45628 3.4625 6.38993C3.4625 6.33529 3.43989 6.27674 3.39461 6.21429L3.05517 5.75761C3.01404 5.69515 2.97494 5.66393 2.93791 5.66393C2.90088 5.66393 2.85768 5.69515 2.8083 5.75761L2.45035 6.26112C2.41332 6.31967 2.3948 6.37236 2.3948 6.4192C2.3948 6.48946 2.438 6.55972 2.52441 6.62998C2.59025 6.68073 2.63962 6.72756 2.67253 6.77049C2.70546 6.80953 2.7219 6.85246 2.7219 6.8993C2.7219 6.98906 2.68487 7.05152 2.61081 7.08665C2.54087 7.11787 2.43595 7.13349 2.29605 7.13349H1.45053ZM6.39976 7.11007C6.23107 7.11007 6.11174 7.08859 6.0418 7.04567C5.97186 7.00274 5.93688 6.92857 5.93688 6.82318C5.93688 6.76073 5.95127 6.70803 5.98008 6.6651C6.01299 6.62218 6.05619 6.58119 6.10969 6.54215C6.19609 6.4719 6.25164 6.39578 6.27632 6.31382C6.30513 6.22794 6.31952 6.07571 6.31952 5.85714V4.26464C6.31952 4.04607 6.30513 3.89578 6.27632 3.81382C6.24751 3.72794 6.18992 3.64988 6.10352 3.57962C5.9883 3.50157 5.93071 3.40789 5.93071 3.29859C5.93071 3.19321 5.96569 3.11904 6.03563 3.07611C6.10556 3.03318 6.2249 3.01171 6.39358 3.01171H6.95521H7.09098H7.65261C7.82129 3.01171 7.94063 3.03318 8.01057 3.07611C8.0805 3.11904 8.11549 3.19321 8.11549 3.29859C8.11549 3.35714 8.09902 3.40789 8.06611 3.45082C8.0373 3.49375 7.99617 3.5367 7.94268 3.57962C7.85627 3.65379 7.79868 3.73185 7.76987 3.81382C7.74518 3.89578 7.73284 4.04607 7.73284 4.26464V5.85714C7.73284 6.07571 7.74723 6.22794 7.77604 6.31382C7.80485 6.39578 7.86245 6.4719 7.94885 6.54215C8.06406 6.62021 8.12166 6.71389 8.12166 6.82318C8.12166 6.92857 8.08668 7.00274 8.01674 7.04567C7.9468 7.08859 7.82746 7.11007 7.65878 7.11007H7.09716H6.96138H6.39976ZM8.77941 7.13349C8.47907 7.13349 8.32888 7.04761 8.32888 6.87588C8.32888 6.80953 8.35356 6.75293 8.40294 6.70609C8.45231 6.65925 8.53049 6.61047 8.63746 6.55972C8.71977 6.51679 8.79175 6.47384 8.85347 6.43091C8.91519 6.38407 8.98103 6.31382 9.05096 6.22014L9.77922 5.26581C9.82038 5.19946 9.84094 5.137 9.84094 5.07845C9.84094 5.016 9.8245 4.96721 9.79157 4.93208L9.11268 4.00703C9.02628 3.88602 8.95222 3.80405 8.8905 3.76112C8.83291 3.71429 8.7568 3.6733 8.66215 3.63817C8.58809 3.60696 8.52844 3.56792 8.48317 3.52108C8.44204 3.47424 8.42145 3.40984 8.42145 3.32787C8.42145 3.21077 8.46465 3.12686 8.55106 3.07611C8.64158 3.02536 8.7897 3 8.99542 3H10.4272C10.6289 3 10.7708 3.02733 10.8531 3.08197C10.9354 3.13272 10.9765 3.20686 10.9765 3.30445C10.9765 3.39033 10.9231 3.47424 10.8161 3.55621C10.7297 3.63037 10.6865 3.70063 10.6865 3.76698C10.6865 3.81382 10.7029 3.85871 10.7358 3.90164L10.9333 4.17681C10.9868 4.24316 11.0321 4.27635 11.0691 4.27635C11.1061 4.27635 11.1452 4.24513 11.1864 4.18267L11.4024 3.87822C11.4394 3.83138 11.4579 3.77869 11.4579 3.72014C11.4579 3.64208 11.4147 3.57183 11.3283 3.50937C11.2625 3.46253 11.2131 3.4196 11.1802 3.38056C11.1514 3.33763 11.137 3.2908 11.137 3.24005C11.137 3.15028 11.172 3.08977 11.2419 3.05855C11.316 3.02342 11.423 3.00585 11.5628 3.00585H12.4022C12.7067 3.00585 12.8589 3.09173 12.8589 3.26347C12.8589 3.33372 12.8342 3.39227 12.7848 3.43911C12.7355 3.48595 12.6573 3.53279 12.5503 3.57962C12.4722 3.61475 12.4022 3.65379 12.3405 3.69672C12.2829 3.73965 12.215 3.81382 12.1368 3.9192L11.5382 4.69204C11.5052 4.74279 11.4888 4.79351 11.4888 4.84426C11.4888 4.8989 11.5052 4.95159 11.5382 5.00234L12.3898 6.16745C12.468 6.27283 12.5359 6.347 12.5935 6.38993C12.6511 6.42897 12.7252 6.46799 12.8157 6.50703C12.8939 6.53824 12.9515 6.57923 12.9885 6.62998C13.0297 6.67681 13.0502 6.74122 13.0502 6.82318C13.0502 6.93248 13.007 7.01445 12.9206 7.06909C12.8383 7.11984 12.6923 7.1452 12.4824 7.1452H11.0691C10.8634 7.1452 10.7173 7.11984 10.6309 7.06909C10.5445 7.01834 10.5013 6.94222 10.5013 6.84075C10.5013 6.74316 10.5589 6.65534 10.6741 6.57728C10.7523 6.51873 10.7914 6.45628 10.7914 6.38993C10.7914 6.33529 10.7688 6.27674 10.7235 6.21429L10.384 5.75761C10.3429 5.69515 10.3038 5.66393 10.2668 5.66393C10.2298 5.66393 10.1866 5.69515 10.1372 5.75761L9.77922 6.26112C9.74219 6.31967 9.72368 6.37236 9.72368 6.4192C9.72368 6.48946 9.76688 6.55972 9.85328 6.62998C9.91912 6.68073 9.9685 6.72756 10.0014 6.77049C10.0343 6.80953 10.0508 6.85246 10.0508 6.8993C10.0508 6.98906 10.0137 7.05152 9.93969 7.08665C9.86975 7.11787 9.76483 7.13349 9.62493 7.13349H8.77941ZM13.4694 5.9918C13.3131 5.9918 13.2349 5.9274 13.2349 5.79859C13.2349 5.65028 13.2658 5.52536 13.3275 5.42389C13.3892 5.32241 13.4735 5.27166 13.5805 5.27166H14.7716C14.8416 5.27166 14.8971 5.28532 14.9383 5.31265C14.9794 5.33998 15 5.3907 15 5.46487C15 5.61318 14.9691 5.7381 14.9074 5.83958C14.8498 5.94105 14.7655 5.9918 14.6544 5.9918H13.4694ZM3.2677 12.9883C2.96734 12.9883 2.81717 12.9024 2.81717 12.7307C2.81717 12.6643 2.84185 12.6077 2.89123 12.5609C2.9406 12.5141 3.01876 12.4653 3.12575 12.4145C3.20803 12.3716 3.28004 12.3286 3.34176 12.2857C3.40348 12.2389 3.46929 12.1686 3.53925 12.0749L4.26751 11.1206C4.30864 11.0543 4.32923 10.9918 4.32923 10.9333C4.32923 10.8708 4.31276 10.822 4.27986 10.7869L3.60097 9.86183C3.51457 9.74082 3.44051 9.65885 3.37879 9.61592C3.32117 9.56909 3.24506 9.5281 3.15044 9.49297C3.07638 9.46176 3.01671 9.42272 2.97146 9.37588C2.93031 9.32904 2.90974 9.26464 2.90974 9.18267C2.90974 9.06557 2.95294 8.98166 3.03935 8.93091C3.12985 8.88016 3.27797 8.8548 3.48371 8.8548H4.91554C5.11713 8.8548 5.25908 8.88213 5.34139 8.93677C5.42367 8.98752 5.46482 9.06166 5.46482 9.15925C5.46482 9.24513 5.41132 9.32904 5.30436 9.41101C5.21795 9.48518 5.17475 9.55543 5.17475 9.62178C5.17475 9.66862 5.19119 9.71351 5.22412 9.75644L5.42162 10.0316C5.47509 10.098 5.52036 10.1311 5.55739 10.1311C5.59442 10.1311 5.6335 10.0999 5.67466 10.0375L5.89067 9.73302C5.9277 9.68618 5.94621 9.63349 5.94621 9.57494C5.94621 9.49689 5.90301 9.42663 5.81661 9.36417C5.75077 9.31733 5.70139 9.2744 5.66849 9.23536C5.63968 9.19244 5.62528 9.1456 5.62528 9.09485C5.62528 9.00508 5.66024 8.94457 5.7302 8.91335C5.80426 8.87822 5.91123 8.86065 6.05113 8.86065H6.89048C7.19494 8.86065 7.34718 8.94653 7.34718 9.11827C7.34718 9.18852 7.3225 9.24707 7.27312 9.29391C7.22375 9.34075 7.14557 9.38759 7.0386 9.43443C6.96042 9.46955 6.89048 9.50859 6.82876 9.55152C6.77114 9.59445 6.70325 9.66862 6.6251 9.774L6.02644 10.5468C5.99351 10.5976 5.97707 10.6483 5.97707 10.6991C5.97707 10.7537 5.99351 10.8064 6.02644 10.8571L6.87814 12.0222C6.95629 12.1276 7.02418 12.2018 7.0818 12.2447C7.1394 12.2838 7.21346 12.3228 7.30398 12.3618C7.38214 12.393 7.43976 12.434 7.47679 12.4848C7.51792 12.5316 7.53851 12.596 7.53851 12.678C7.53851 12.7873 7.4953 12.8692 7.4089 12.9239C7.32659 12.9746 7.18055 13 6.97071 13H5.55739C5.35166 13 5.20561 12.9746 5.11921 12.9239C5.0328 12.8731 4.9896 12.797 4.9896 12.6955C4.9896 12.598 5.04719 12.5101 5.16241 12.4321C5.24057 12.3735 5.27967 12.3111 5.27967 12.2447C5.27967 12.1901 5.25703 12.1315 5.21178 12.0691L4.87234 11.6124C4.83118 11.55 4.79211 11.5187 4.75508 11.5187C4.71805 11.5187 4.67484 11.55 4.62547 11.6124L4.26751 12.1159C4.23048 12.1745 4.21197 12.2272 4.21197 12.274C4.21197 12.3443 4.25517 12.4145 4.34157 12.4848C4.40739 12.5355 4.45676 12.5824 4.48969 12.6253C4.5226 12.6643 4.53907 12.7073 4.53907 12.7541C4.53907 12.8439 4.50204 12.9063 4.42798 12.9415C4.35801 12.9727 4.2531 12.9883 4.11322 12.9883H3.2677Z" fill="#2D1D38"/>
<path d="M8.71094 9.46143C9.48715 10.6069 10.2649 11.7515 11.0554 12.8876C11.1604 13.0384 11.4978 13.5275 11.6599 13.7358C11.7748 13.8835 11.728 13.8261 11.7489 13.7549" stroke="#2D1D38" stroke-width="1.2" stroke-linecap="round"/>
<path d="M11.9196 9C11.0847 10.2015 10.1549 11.3228 9.39363 12.5766C8.87166 13.4363 8.43674 14.3474 8 15.2491" stroke="#2D1D38" stroke-width="1.2" stroke-linecap="round"/>
</svg>
