<svg width="480" height="85" viewBox="0 0 480 85" fill="none" xmlns="http://www.w3.org/2000/svg">
<path fill-rule="evenodd" clip-rule="evenodd" d="M423.109 27.8277L424.638 24.0202L429.207 36.3001C431.354 42.0709 431.275 48.4346 428.985 54.1503L427.45 57.9518L422.881 45.6839C422.713 45.2282 422.564 44.7665 422.42 44.3048C424.218 39.7418 426.017 38.4647 427.564 38.4647L425.166 33.2121L421.88 42.2062C420.84 37.3968 421.257 32.3865 423.079 27.8157L423.109 27.8277ZM425.393 63.8879C425.44 64.0095 425.522 64.1141 425.629 64.1879C425.736 64.2617 425.863 64.3012 425.993 64.3012C426.123 64.3012 426.25 64.2617 426.357 64.1879C426.464 64.1141 426.546 64.0095 426.593 63.8879L431.803 52.2676C434.522 45.5556 434.629 38.0683 432.102 31.2814L426.617 17.9042C426.57 17.7827 426.488 17.678 426.381 17.6042C426.274 17.5304 426.147 17.4909 426.017 17.4909C425.887 17.4909 425.76 17.5304 425.653 17.6042C425.546 17.678 425.464 17.7827 425.417 17.9042L420.183 29.7704C417.741 35.8895 417.464 42.6595 419.398 48.9578L417.809 53.3049L413.103 40.6352H406.094V41.0969C407.008 41.1915 407.879 41.5334 408.613 42.0859C409.347 42.6385 409.917 43.3807 410.261 44.2329L416.082 57.2623C415.97 57.4826 415.798 57.6668 415.586 57.794C415.374 57.9213 415.13 57.9863 414.883 57.9818C413.846 57.9818 412.701 56.7826 412.749 54.672L411.598 54.2163L410.321 58.9292C410.599 59.6516 411.094 60.2701 411.739 60.6996C412.383 61.129 413.144 61.3484 413.918 61.3276C416.052 61.3276 417.09 59.5768 417.857 57.5321L420.111 50.9904L425.393 63.8939V63.8879Z" fill="#2D1D38"/>
<path fill-rule="evenodd" clip-rule="evenodd" d="M438.966 45.0064C438.966 45.0064 441.964 53.5927 442.827 58.2996C442.791 58.8992 442.467 59.0371 442.167 59.0371H440.267V60.2903H462.732C462.426 57.8919 461.563 57.742 461.563 55.4934H460.31C460.31 57.8919 458.475 58.7733 455.148 58.7733H453.637C453.541 55.9911 453.487 53.3289 453.475 50.6666L455.651 50.5167C455.977 50.4867 456.306 50.525 456.616 50.6292C456.926 50.7334 457.211 50.9012 457.453 51.1219C457.694 51.3426 457.887 51.6113 458.019 51.9108C458.15 52.2103 458.218 52.534 458.218 52.8612H458.961V47.1589H458.218C458.218 47.4864 458.15 47.8103 458.019 48.1101C457.887 48.4099 457.694 48.6789 457.453 48.9C457.211 49.1212 456.926 49.2896 456.616 49.3945C456.306 49.4994 455.978 49.5385 455.651 49.5094L453.475 49.3535C453.475 46.8112 453.529 44.3288 453.637 41.9184H456.773C458.823 41.9184 459.836 43.0636 459.836 45.4501H461.089C461.089 43.2135 461.953 43.0516 462.259 40.6532H447.51V41.9004H448.93C449.284 41.9004 449.77 42.0383 449.836 42.5C450.157 47.5489 450.181 52.6123 449.908 57.664C449.888 58.049 449.72 58.4114 449.44 58.676C449.16 58.9406 448.788 59.0871 448.403 59.0851C448.059 59.0768 447.727 58.9546 447.46 58.7375C447.194 58.5205 447.006 58.2209 446.928 57.8859C445.495 52.7473 442.293 44.4187 442.293 41.9124H444.889V40.6352H435.608V41.8824H437.527C437.7 41.8759 437.871 41.9255 438.013 42.0238C438.156 42.1221 438.263 42.2639 438.318 42.4281C438.39 42.6196 438.405 42.8279 438.36 43.0277C437.383 47.1589 432.473 53.7546 432.473 57.628C432.488 58.4622 432.58 59.2932 432.748 60.1104C432.793 60.314 432.913 60.4932 433.084 60.6121C433.256 60.7311 433.465 60.781 433.672 60.752L434.469 60.662C434.789 60.6141 435.114 60.6141 435.434 60.662L436.292 60.794C436.7 60.8599 437.053 60.5901 437.053 59.9425C437.053 59.139 435.854 56.3809 435.854 53.9465C435.854 50.9484 437.197 48.2142 439.008 44.9524L438.966 45.0064Z" fill="#2D1D38"/>
<path fill-rule="evenodd" clip-rule="evenodd" d="M436.365 72.6242C436.154 72.7496 435.926 72.8426 435.687 72.9C435.318 72.9751 434.942 73.0053 434.566 72.9899H433.673C433.448 72.9904 433.223 72.9743 433.001 72.9419C432.791 72.912 432.569 72.864 432.318 72.804C432.276 72.9479 432.21 73.2837 432.108 73.8234C432.048 74.1651 431.922 74.6808 431.748 75.3943L432.282 75.6582C432.288 75.5852 432.309 75.5142 432.343 75.4494C432.377 75.3845 432.423 75.3271 432.48 75.2804C432.694 75.1912 432.926 75.1562 433.157 75.1785H435.16C434.552 76.7095 434.004 78.2604 433.517 79.8314C433.01 81.3978 432.627 83.0017 432.372 84.6282C432.608 84.6237 432.844 84.6519 433.073 84.7122C433.314 84.785 433.547 84.8814 433.769 85C433.737 84.7394 433.721 84.4771 433.721 84.2145V83.411C433.788 82.2564 433.989 81.1134 434.32 80.0053C434.644 78.7461 435.064 77.415 435.561 76.0299C435.902 75.0315 436.303 74.0544 436.76 73.1038L436.365 72.6421V72.6242Z" fill="#2D1D38"/>
<path fill-rule="evenodd" clip-rule="evenodd" d="M442.067 82.008C441.833 82.4217 441.629 82.6076 441.467 82.6076C440.969 82.6076 440.328 81.894 439.53 80.473C438.844 79.3892 438.432 78.1543 438.331 76.8754C438.323 76.2682 438.483 75.6705 438.793 75.1485C439.051 74.7228 439.285 74.5129 439.476 74.5129C439.932 74.5129 440.532 75.3104 441.275 76.9113C441.912 78.0843 442.298 79.3768 442.408 80.7068C442.409 81.1628 442.291 81.6112 442.067 82.008ZM440.526 72.2224C439.986 72.2224 439.327 72.924 438.613 74.339C437.933 75.5357 437.553 76.879 437.504 78.2544C437.522 79.8111 437.935 81.3377 438.703 82.6915C439.442 84.0426 440.08 84.7162 440.616 84.7122C440.993 84.7122 441.503 84.1126 442.156 82.8594C442.871 81.5744 443.256 80.1324 443.278 78.6622C443.22 77.2001 442.846 75.768 442.18 74.4649C441.497 72.9779 440.941 72.2344 440.514 72.2344L440.526 72.2224Z" fill="#2D1D38"/>
<path fill-rule="evenodd" clip-rule="evenodd" d="M452.145 82.3917H451.156C451.108 82.3884 451.061 82.4014 451.022 82.4287C450.983 82.4559 450.954 82.4958 450.94 82.5416C450.886 82.8199 450.866 83.1038 450.88 83.3871C450.865 83.678 450.883 83.9697 450.934 84.2565C450.95 84.3012 450.981 84.3391 451.021 84.3642C451.061 84.3892 451.109 84.3999 451.156 84.3944H452.145C452.247 84.3944 452.289 84.2984 452.289 84.1545V82.6316C452.289 82.4876 452.247 82.4097 452.145 82.3857V82.3917Z" fill="#2D1D38"/>
<path fill-rule="evenodd" clip-rule="evenodd" d="M422.279 72.3423C421.258 73.2221 420.012 73.8012 418.682 74.0152L418.748 74.6148C419.683 74.423 420.222 74.6148 420.222 75.5862V83.453H418.79V84.1605H423.754V83.453H422.279V72.3423Z" fill="#2D1D38"/>
<path fill-rule="evenodd" clip-rule="evenodd" d="M451.007 80.1372C451.451 79.0084 451.655 77.7996 451.607 76.5875H444.856V77.2951H445.665C445.762 77.2862 445.859 77.3045 445.946 77.348C446.033 77.3914 446.106 77.4582 446.157 77.5409C446.36 79.5004 446.36 81.4756 446.157 83.435H444.844V84.1426H449.418V83.435H448.219C448.096 81.3882 448.096 79.3359 448.219 77.2891H448.537C450.45 77.2891 450.336 78.7881 450.336 80.1372H451.007Z" fill="#2D1D38"/>
<path fill-rule="evenodd" clip-rule="evenodd" d="M429.151 82.6735C429.018 82.8978 428.835 83.0886 428.617 83.2312C427.919 82.8686 427.294 82.3785 426.776 81.7861C426.198 81.241 425.84 80.5029 425.769 79.7115C425.761 79.4322 425.84 79.1574 425.997 78.926C426.147 78.7041 426.297 78.5902 426.435 78.5902C426.788 78.5902 427.346 78.95 428.101 79.6815C428.857 80.413 429.354 81.2345 429.354 81.924C429.353 82.19 429.28 82.4508 429.145 82.6795L429.151 82.6735ZM425.985 74.6448C425.989 74.3988 426.073 74.1609 426.225 73.9673C426.381 73.7454 426.537 73.6435 426.686 73.6435C427.282 73.747 427.818 74.0674 428.191 74.5429C428.732 74.996 429.075 75.6407 429.151 76.3417C429.155 76.5963 429.084 76.8465 428.947 77.0612C428.828 77.2492 428.666 77.4056 428.473 77.5169C427.926 77.1769 427.407 76.7939 426.92 76.3717C426.653 76.1615 426.432 75.8978 426.272 75.5973C426.112 75.2969 426.016 74.9663 425.991 74.6268L425.985 74.6448ZM428.863 77.9307C429.22 77.579 429.539 77.1912 429.816 76.7734C430.066 76.3678 430.199 75.9008 430.2 75.4243C430.154 74.6401 429.834 73.897 429.295 73.3257C428.695 72.5942 428.161 72.2284 427.706 72.2284C427.25 72.2284 426.77 72.5702 426.123 73.2597C425.395 73.9637 424.977 74.9277 424.96 75.94C424.968 76.3594 425.077 76.7707 425.278 77.1392C425.48 77.5255 425.753 77.8711 426.081 78.1585C425.579 78.5178 425.168 78.9902 424.882 79.5376C424.698 79.9398 424.608 80.3786 424.618 80.8207C424.679 81.777 425.052 82.6868 425.679 83.411C426.345 84.2805 426.92 84.7062 427.412 84.7062C427.904 84.7062 428.527 84.2985 429.313 83.507C430.098 82.7155 430.512 81.888 430.512 81.2105C430.54 80.5346 430.381 79.864 430.05 79.2738C429.725 78.7715 429.33 78.319 428.875 77.9307H428.863Z" fill="#2D1D38"/>
<path fill-rule="evenodd" clip-rule="evenodd" d="M395.715 22.9109C396.027 22.8084 396.292 22.5951 396.458 22.3113C396.645 22.0416 396.73 21.7144 396.698 21.3879C396.678 21.1912 396.614 21.0016 396.51 20.8333C396.406 20.6651 396.265 20.5226 396.098 20.4165L395.601 21.196C395.727 21.2648 395.833 21.3663 395.907 21.4898C395.951 21.5553 395.975 21.6326 395.975 21.7117C395.975 21.7908 395.951 21.8681 395.907 21.9335C395.867 22.0055 395.807 22.0646 395.735 22.1039C395.663 22.1432 395.581 22.1611 395.499 22.1554C395.355 22.1382 395.218 22.0822 395.103 21.9935L394.605 22.773C394.769 22.8762 394.953 22.942 395.145 22.9659C395.336 22.9897 395.531 22.9709 395.715 22.9109Z" fill="#2D1D38"/>
<path fill-rule="evenodd" clip-rule="evenodd" d="M408.56 19.0551L408.555 19.0494V19.0551H408.56Z" fill="#2D1D38"/>
<path fill-rule="evenodd" clip-rule="evenodd" d="M402.031 16.8189C402.089 16.742 402.164 16.68 402.251 16.6383C402.337 16.5965 402.432 16.5762 402.529 16.5791C402.701 16.6108 402.86 16.6945 402.984 16.8189L405.982 19.4092C406.126 19.5141 406.235 19.6605 406.294 19.8289C406.302 19.9248 406.291 20.0213 406.26 20.1126C406.23 20.2038 406.181 20.2879 406.117 20.3598C406.053 20.4316 405.975 20.4896 405.888 20.5303C405.801 20.571 405.706 20.5935 405.61 20.5964C405.437 20.5623 405.278 20.4766 405.155 20.3506L402.157 17.7603C402.013 17.6587 401.906 17.5137 401.851 17.3466C401.836 17.2506 401.845 17.1525 401.876 17.0606C401.907 16.9686 401.96 16.8857 402.031 16.8189ZM401.371 18.6177L404.423 21.262C404.583 21.4354 404.781 21.5683 405.002 21.6497C405.223 21.731 405.46 21.7584 405.694 21.7297C406.159 21.6449 406.575 21.3906 406.863 21.0161C407.19 20.6759 407.382 20.2283 407.403 19.757C407.401 19.5202 407.341 19.2875 407.229 19.0786C407.118 18.8698 406.957 18.6911 406.761 18.5578L403.692 15.9075C403.533 15.7335 403.334 15.6007 403.113 15.5202C402.892 15.4398 402.654 15.4143 402.421 15.4458C401.972 15.5417 401.572 15.7947 401.294 16.1593C400.967 16.4999 400.775 16.9473 400.754 17.4185C400.754 17.6514 400.81 17.8809 400.918 18.0876C401.025 18.2942 401.181 18.4719 401.371 18.6057V18.6177Z" fill="#2D1D38"/>
<path fill-rule="evenodd" clip-rule="evenodd" d="M411.297 15.152C411.278 15.2674 411.233 15.3771 411.166 15.4726C411.098 15.5682 411.01 15.6472 410.908 15.7036L411.507 16.5191L411.855 16.2733C412.056 16.1536 412.223 15.9831 412.337 15.779C412.452 15.5749 412.511 15.3442 412.509 15.11C412.473 14.3186 411.795 13.3952 410.962 12.2319L409.571 10.2832L410.368 9.71959L413.965 14.7683L414.919 14.0847L410.722 8.22058L408.006 10.1513L410.476 13.581C411.076 14.4505 411.321 14.8582 411.291 15.134L411.297 15.152Z" fill="#2D1D38"/>
<path fill-rule="evenodd" clip-rule="evenodd" d="M399.612 25.1055L399.138 24.7577L396.35 22.9709L395.721 23.9542L401.782 27.8457L402.412 26.8563L401.315 26.1548L399.636 23.5885L400.055 23.9003L403.071 25.831L403.701 24.8476L397.639 20.9562L397.01 21.9456L397.933 22.5392L399.612 25.1055Z" fill="#2D1D38"/>
<path fill-rule="evenodd" clip-rule="evenodd" d="M414.826 8.26855L416.571 10.583L415.683 11.0507L414.808 8.28054L414.826 8.26855ZM416.445 13.2812L416.019 11.9981L417.134 11.3985L417.92 12.4838L418.999 11.9321L414.532 6.12196L413.285 6.81751L415.384 13.8329L416.469 13.2812H416.445Z" fill="#2D1D38"/>
<path fill-rule="evenodd" clip-rule="evenodd" d="M407.549 15.4098C407.635 15.3324 407.737 15.2759 407.848 15.2447C407.96 15.2135 408.077 15.2084 408.19 15.23C408.394 15.3145 408.57 15.4535 408.7 15.6317L409.156 16.1654C409.332 16.3177 409.441 16.5329 409.461 16.765C409.442 16.8584 409.404 16.947 409.349 17.0253C409.294 17.1036 409.225 17.1701 409.144 17.2207L408.784 17.5325L407.207 15.7336L407.549 15.4398V15.4098ZM410.193 17.6344C410.331 17.5221 410.445 17.3818 410.525 17.2227C410.606 17.0636 410.652 16.8892 410.66 16.711C410.639 16.2655 410.463 15.8413 410.163 15.5118L409.563 14.8282C409.309 14.5081 408.973 14.2618 408.592 14.1147C408.328 14.0296 408.045 14.0181 407.775 14.0815C407.504 14.1449 407.256 14.2807 407.057 14.4745L406.547 14.9182L405.396 13.5811L406.961 12.2319L406.302 11.4704L403.855 13.5811L408.568 19.0255L410.199 17.6164L410.193 17.6344Z" fill="#2D1D38"/>
<path fill-rule="evenodd" clip-rule="evenodd" d="M454.018 8.47241L453.137 11.2486L452.256 10.8109L454.018 8.47241ZM450.907 12.7356L451.698 11.6443L452.819 12.2439L452.394 13.5211L453.467 14.0727L455.565 7.05734L454.294 6.38579L449.857 12.178L450.937 12.7296L450.907 12.7356Z" fill="#2D1D38"/>
<path fill-rule="evenodd" clip-rule="evenodd" d="M456.463 16.1833L457.044 15.3679L455.425 14.2166L456.846 12.22L458.003 13.0414L458.585 12.22L457.434 11.3985L458.435 9.98942L459.922 11.0507L460.51 10.2353L458.063 8.49041L453.896 14.3605L456.463 16.1833Z" fill="#2D1D38"/>
<path fill-rule="evenodd" clip-rule="evenodd" d="M453.889 14.3659L453.894 14.3602L453.889 14.3545V14.3659Z" fill="#2D1D38"/>
<path fill-rule="evenodd" clip-rule="evenodd" d="M400.422 30.7537L399.229 30.2201L397.202 27.9236L397.664 28.1814L400.925 29.6505L401.405 28.5832L394.846 25.6211L394.366 26.6884L395.367 27.1381L397.4 29.4346L396.878 29.1528L393.863 27.7917L393.377 28.859L399.936 31.821L400.422 30.7537Z" fill="#2D1D38"/>
<path fill-rule="evenodd" clip-rule="evenodd" d="M458.477 16.5071L460.048 14.7083L460.443 15.0561C460.53 15.1145 460.6 15.1931 460.649 15.285C460.698 15.377 460.724 15.4795 460.725 15.5837C460.725 15.6857 460.659 15.8356 460.359 16.1833L459.952 16.651C459.652 16.9928 459.55 17.0707 459.466 17.1007C459.383 17.1299 459.292 17.1335 459.207 17.111C459.121 17.0886 459.045 17.0412 458.986 16.9748L458.471 16.5311L458.477 16.5071ZM460.707 13.9348L461.852 12.5857L462.302 12.9814C462.372 13.032 462.43 13.0986 462.469 13.1757C462.509 13.2529 462.53 13.3384 462.53 13.4252C462.493 13.57 462.419 13.7025 462.314 13.8089L462.008 14.1687C461.899 14.3127 461.745 14.4161 461.57 14.4625C461.489 14.4729 461.406 14.4649 461.328 14.4389C461.251 14.4129 461.18 14.3698 461.121 14.3126L460.683 13.9348H460.707ZM456.936 16.5011L458.651 17.9941C458.792 18.1459 458.974 18.2538 459.175 18.3048C459.376 18.3558 459.587 18.3479 459.784 18.2819C460.088 18.1674 460.355 17.9726 460.557 17.7183L461.343 16.8189C461.525 16.6238 461.666 16.3932 461.756 16.1414C461.805 16.0053 461.819 15.8597 461.8 15.7167C461.78 15.5737 461.726 15.4376 461.642 15.3199C461.739 15.3845 461.85 15.4247 461.966 15.4372C462.082 15.4498 462.199 15.4342 462.308 15.3919C462.529 15.3054 462.723 15.1628 462.871 14.9781L463.261 14.5284C463.559 14.2326 463.731 13.8329 463.741 13.4132C463.735 13.2351 463.69 13.0605 463.611 12.9012C463.531 12.7418 463.418 12.6015 463.279 12.4898L461.636 11.0687L456.924 16.5131L456.936 16.5011Z" fill="#2D1D38"/>
<path fill-rule="evenodd" clip-rule="evenodd" d="M462.264 21.5798L462.99 20.8842L461.617 19.4452L463.398 17.7543L464.375 18.7796L465.1 18.0901L464.123 17.0648L465.37 15.8715L466.635 17.1967L467.367 16.5011L465.292 14.3306L460.082 19.2953L462.264 21.5798Z" fill="#2D1D38"/>
<path fill-rule="evenodd" clip-rule="evenodd" d="M422.616 4.13727L424.313 10.0973L425.434 9.77355H425.44L423.743 3.81348L424.942 3.4717L424.666 2.50634L421.129 3.51368L421.405 4.48504L422.616 4.13727Z" fill="#2D1D38"/>
<path fill-rule="evenodd" clip-rule="evenodd" d="M450.093 5.57632L450.591 5.7682C450.671 5.79487 450.744 5.83802 450.806 5.89483C450.868 5.95164 450.917 6.02086 450.951 6.09798C450.982 6.26401 450.955 6.43578 450.873 6.58366L450.591 7.29719C450.542 7.4688 450.46 7.62953 450.351 7.77088C450.189 7.93877 450.033 7.87881 449.884 7.81885L449.284 7.59099L450.075 5.58232L450.093 5.57632ZM447.815 11.3325L448.918 8.52038C449.173 8.66626 449.44 8.79061 449.716 8.89214C450.069 9.0374 450.466 9.0374 450.819 8.89214C451.19 8.67651 451.465 8.32674 451.586 7.91478L451.982 6.90145C452.077 6.7181 452.135 6.51752 452.151 6.31155C452.168 6.10559 452.143 5.89841 452.078 5.70224C451.893 5.33151 451.577 5.04294 451.191 4.89277L449.392 4.17325L446.754 10.8768L447.815 11.3325Z" fill="#2D1D38"/>
<path fill-rule="evenodd" clip-rule="evenodd" d="M437.109 7.54303L438.572 4.85081L438.494 5.36647L438.224 8.94011L439.387 9.02406V9.03605L439.933 1.85278L438.77 1.76284L438.686 2.85412L437.223 5.55235L437.307 4.97073L437.552 1.66691L436.389 1.57697L435.844 8.76023L437.007 8.84418L437.109 7.54303Z" fill="#2D1D38"/>
<path fill-rule="evenodd" clip-rule="evenodd" d="M443.682 9.98343L444.611 6.70359L445.019 6.82351L445.073 10.3792L446.2 10.703L446.11 6.8415C446.378 6.68156 446.588 6.43992 446.709 6.15195L447.267 4.98272C447.315 4.89878 447.441 4.64095 447.693 4.7069L447.872 4.76087L448.154 3.76552L447.837 3.67558C447.587 3.60446 447.325 3.58809 447.069 3.62761C446.934 3.66319 446.81 3.73005 446.706 3.82277C446.601 3.91549 446.52 4.03145 446.47 4.16126L445.93 5.30051C445.66 5.90012 445.456 5.90012 445.252 5.84615L444.875 5.74422L445.66 3.046L444.533 2.72221L442.566 9.65364L443.688 9.97143L443.682 9.98343Z" fill="#2D1D38"/>
<path fill-rule="evenodd" clip-rule="evenodd" d="M428.307 9.20393L427.875 5.80417L429.08 5.64828H429.086L429.518 9.04804L430.681 8.90413L429.77 1.75684L428.607 1.90074L428.96 4.65293L427.749 4.80883L427.401 2.05664L426.238 2.20654L427.144 9.35383L428.307 9.20393Z" fill="#2D1D38"/>
<path fill-rule="evenodd" clip-rule="evenodd" d="M432.596 2.69223C432.662 2.62292 432.741 2.5677 432.829 2.52997C432.916 2.49223 433.011 2.47277 433.106 2.47277C433.201 2.47277 433.296 2.49223 433.383 2.52997C433.471 2.5677 433.55 2.62292 433.616 2.69223C433.705 2.8425 433.749 3.01534 433.742 3.1899L433.838 7.1413C433.859 7.31579 433.823 7.49245 433.736 7.64497C433.677 7.71972 433.601 7.77937 433.514 7.81899C433.428 7.85861 433.333 7.87706 433.238 7.87282C433.142 7.88286 433.045 7.86957 432.955 7.83407C432.865 7.79858 432.786 7.74194 432.722 7.66895C432.633 7.51868 432.59 7.34585 432.596 7.17128L432.501 3.21989C432.481 3.04423 432.514 2.86677 432.596 2.71022V2.69223ZM431.427 7.23124C431.407 7.46521 431.444 7.70055 431.533 7.91755C431.623 8.13455 431.764 8.32688 431.943 8.47842C432.317 8.76702 432.785 8.90596 433.256 8.86816C433.728 8.88009 434.188 8.72029 434.551 8.41846C434.723 8.25634 434.854 8.05512 434.932 7.83179C435.011 7.60846 435.034 7.36957 435.001 7.1353L434.905 3.09996C434.923 2.86472 434.885 2.6285 434.795 2.41066C434.704 2.19283 434.563 1.99959 434.383 1.84679C434.008 1.56136 433.54 1.4247 433.07 1.46304C432.597 1.45279 432.137 1.61475 431.775 1.91874C431.603 2.07964 431.472 2.2798 431.394 2.50217C431.315 2.72454 431.292 2.96254 431.325 3.1959L431.427 7.22525V7.23124Z" fill="#2D1D38"/>
<path fill-rule="evenodd" clip-rule="evenodd" d="M437.267 1.0673C437.507 1.29286 437.82 1.42479 438.149 1.43905C438.475 1.47653 438.803 1.39335 439.072 1.20521C439.242 1.09746 439.385 0.951361 439.49 0.778553C439.594 0.605744 439.656 0.411006 439.671 0.209862L438.76 0.143905C438.764 0.288999 438.722 0.431567 438.64 0.551637C438.602 0.620847 438.544 0.676832 438.473 0.71217C438.403 0.747508 438.323 0.76053 438.245 0.749506C438.163 0.748579 438.084 0.724367 438.016 0.679736C437.948 0.635106 437.894 0.571925 437.861 0.497672C437.805 0.361157 437.786 0.212098 437.807 0.0659558L436.89 0C436.873 0.19767 436.901 0.396604 436.973 0.581589C437.044 0.766574 437.157 0.932711 437.303 1.0673H437.267Z" fill="#2D1D38"/>
<path fill-rule="evenodd" clip-rule="evenodd" d="M418.819 10.2053C418.887 10.447 419.009 10.6699 419.177 10.857C419.344 11.0441 419.552 11.1904 419.785 11.2846C420.23 11.4362 420.716 11.4213 421.152 11.2426C421.604 11.0777 421.981 10.7537 422.213 10.3312C422.301 10.1436 422.347 9.93887 422.347 9.73159C422.347 9.5243 422.301 9.31957 422.213 9.13198L421.769 7.99873L420.684 8.42445L421.08 9.50374C421.152 9.64401 421.173 9.80519 421.14 9.95944C421.108 10.0371 421.059 10.1071 420.999 10.1649C420.938 10.2228 420.865 10.2672 420.786 10.2952C420.621 10.3632 420.435 10.3632 420.27 10.2952C420.191 10.2521 420.121 10.1932 420.065 10.122C420.01 10.0508 419.969 9.96895 419.947 9.88149L418.466 6.10997C418.417 6.02839 418.388 5.93637 418.382 5.84149C418.376 5.74662 418.392 5.65162 418.43 5.56433C418.502 5.42449 418.627 5.31893 418.777 5.27053C418.848 5.23517 418.926 5.21676 419.005 5.21676C419.084 5.21676 419.162 5.23517 419.233 5.27053C419.309 5.30995 419.375 5.36512 419.428 5.43234C419.481 5.49956 419.519 5.57727 419.539 5.66027L419.881 6.49972L420.966 6.068L420.672 5.33049C420.596 5.0976 420.47 4.88436 420.302 4.70606C420.134 4.52776 419.929 4.38881 419.701 4.29917C419.279 4.15712 418.82 4.17634 418.412 4.35313C417.964 4.50393 417.594 4.82485 417.38 5.24654C417.283 5.44532 417.232 5.66375 417.232 5.88512C417.232 6.10649 417.283 6.32492 417.38 6.5237L418.831 10.2053H418.819Z" fill="#2D1D38"/>
<path fill-rule="evenodd" clip-rule="evenodd" d="M479.784 49.9231L479.85 49.0057C479.705 49.0056 479.562 48.9663 479.437 48.8918C479.369 48.8519 479.314 48.7933 479.279 48.7231C479.244 48.6529 479.23 48.5741 479.239 48.496C479.241 48.4135 479.267 48.3333 479.312 48.2645C479.358 48.1956 479.422 48.1408 479.497 48.1063C479.631 48.0503 479.778 48.0317 479.922 48.0523L480 47.1349C479.802 47.1198 479.604 47.1485 479.418 47.2189C479.233 47.2894 479.065 47.4 478.927 47.5427C478.7 47.7809 478.569 48.0951 478.561 48.4241C478.515 48.7497 478.597 49.0805 478.789 49.3475C478.902 49.5111 479.05 49.6476 479.222 49.7472C479.394 49.8467 479.586 49.9068 479.784 49.9231Z" fill="#2D1D38"/>
<path fill-rule="evenodd" clip-rule="evenodd" d="M471.149 47.2609L472.456 47.3568L475.148 48.8198L474.626 48.7359L471.065 48.4661L470.969 49.6353L470.963 49.6413L478.146 50.1869L478.236 49.0177L477.138 48.9398L474.44 47.4707L475.022 47.5547L478.331 47.8065L478.421 46.6373L471.245 46.0916L471.149 47.2609Z" fill="#2D1D38"/>
<path fill-rule="evenodd" clip-rule="evenodd" d="M469.68 59.9545C469.63 59.8477 469.603 59.7309 469.603 59.6127C469.603 59.4945 469.63 59.3778 469.68 59.2709L469.902 58.7133L468.961 58.3356C468.739 58.8452 468.691 58.9352 468.655 59.0671C468.515 59.3726 468.475 59.7148 468.541 60.0444C468.588 60.268 468.682 60.4793 468.815 60.6651C468.948 60.8508 469.118 61.007 469.314 61.1237L474.321 64.3796L474.77 63.2523L471.677 61.4535L475.274 62.0531L475.718 60.9259L470.52 60.3862C470.359 60.3988 470.198 60.3661 470.055 60.2919C469.912 60.2177 469.792 60.105 469.71 59.9665L469.68 59.9545Z" fill="#2D1D38"/>
<path fill-rule="evenodd" clip-rule="evenodd" d="M472.355 64.9792L471.755 64.6434L471.192 65.6268L471.755 65.9505C471.898 66.0185 472.014 66.1325 472.085 66.2743C472.103 66.353 472.104 66.4344 472.09 66.5137C472.076 66.5931 472.045 66.6687 472.001 66.736C471.965 66.8095 471.914 66.8744 471.851 66.9261C471.788 66.9779 471.714 67.0153 471.635 67.0358C471.505 67.0447 471.375 67.0133 471.264 66.9459L470.664 66.5981C470.491 66.5073 470.343 66.3756 470.232 66.2144C470.112 65.9625 470.232 65.7707 470.346 65.5668L470.718 64.9252L469.903 64.4515L469.603 64.9672C469.465 65.213 469.273 65.5248 469.003 65.5668C468.788 65.5716 468.576 65.5041 468.404 65.3749L467.63 64.9372C467.476 64.8639 467.347 64.7472 467.259 64.6014C467.223 64.5146 467.211 64.4198 467.225 64.3269C467.239 64.234 467.277 64.1466 467.336 64.0738C467.377 63.9859 467.437 63.9083 467.511 63.847C467.586 63.7857 467.674 63.7422 467.768 63.72C467.945 63.7305 468.116 63.7908 468.26 63.8939L469.093 64.3796L469.693 63.3663L468.769 62.8326C468.586 62.7085 468.379 62.6232 468.162 62.582C467.944 62.5408 467.72 62.5444 467.504 62.5928C467.059 62.7895 466.697 63.135 466.479 63.5701C466.212 63.9702 466.101 64.4546 466.167 64.9312C466.232 65.1629 466.349 65.3768 466.509 65.5566C466.669 65.7363 466.868 65.8772 467.091 65.9685L467.744 66.3463C468.068 66.5815 468.469 66.6844 468.865 66.6341C469.079 66.5879 469.274 66.4769 469.423 66.3163C469.368 66.5124 469.368 66.7198 469.423 66.9159C469.488 67.0788 469.586 67.2269 469.709 67.3515C469.833 67.4761 469.98 67.5747 470.142 67.6414L470.742 67.9832C470.907 68.0888 471.093 68.1593 471.287 68.1902C471.481 68.2212 471.679 68.2119 471.869 68.1631C472.31 67.9907 472.674 67.665 472.894 67.2457C473.127 66.8564 473.226 66.4015 473.176 65.9505C473.123 65.7388 473.023 65.5418 472.883 65.3746C472.742 65.2073 472.566 65.0742 472.367 64.9852L472.355 64.9792Z" fill="#2D1D38"/>
<path fill-rule="evenodd" clip-rule="evenodd" d="M471.053 42.8777L472.354 42.7758L475.238 43.8191H474.71L471.149 44.0829L471.233 45.2522V45.2582L478.409 44.7125L478.319 43.5493L477.222 43.6332L474.338 42.5839H474.926L478.23 42.3321L478.14 41.1629L470.963 41.7085L471.053 42.8777Z" fill="#2D1D38"/>
<path fill-rule="evenodd" clip-rule="evenodd" d="M470.268 53.9765L474.561 55.1937L475.497 55.3975L475.485 55.4395L470.041 54.7799L469.735 55.8412L469.747 55.8532L474.729 58.1497L474.711 58.1977L473.812 57.8739L469.519 56.6567L469.201 57.778L476.126 59.7447L476.63 57.9638L472.343 56.0331L472.355 55.9971L477.007 56.5967L477.511 54.8159L470.592 52.8492L470.268 53.9765Z" fill="#2D1D38"/>
<path fill-rule="evenodd" clip-rule="evenodd" d="M468.757 24.5478C468.688 24.7388 468.67 24.9441 468.702 25.1444C468.735 25.3447 468.817 25.5335 468.943 25.6931L469.44 26.5685L466.736 28.1275L467.336 29.1408L473.577 25.5432L472.978 24.5358L470.322 26.0588L469.968 25.4592C469.915 25.3903 469.887 25.306 469.887 25.2194C469.887 25.1327 469.915 25.0485 469.968 24.9795C470.09 24.8675 470.228 24.7727 470.376 24.6977L472.408 23.5345L471.809 22.5152L469.602 23.7743C469.244 23.9331 468.947 24.2047 468.757 24.5478Z" fill="#2D1D38"/>
<path fill-rule="evenodd" clip-rule="evenodd" d="M467.629 29.92L467.635 29.9143H467.629V29.92Z" fill="#2D1D38"/>
<path fill-rule="evenodd" clip-rule="evenodd" d="M470.477 38.5606L473.823 37.961L473.901 38.3747L470.729 39.9637L470.939 41.1209L474.362 39.3221C474.624 39.4902 474.933 39.5701 475.244 39.5499H476.539C476.635 39.5499 476.929 39.5499 476.976 39.8018L477.006 39.9876L478.02 39.8078L477.966 39.484C477.922 39.2274 477.821 38.9837 477.672 38.7704C477.579 38.6709 477.465 38.5934 477.339 38.5436C477.212 38.4938 477.076 38.473 476.94 38.4826H475.681C475.04 38.4826 474.932 38.3267 474.89 38.1109L474.818 37.7211L477.564 37.2355L477.36 36.0782L470.273 37.3434L470.477 38.5006V38.5606Z" fill="#2D1D38"/>
<path fill-rule="evenodd" clip-rule="evenodd" d="M465.162 23.7264L464.406 22.6591C465.455 22.2485 466.437 21.6848 467.32 20.9862L468.819 19.9189L469.388 20.7223L465.192 23.7204L465.162 23.7264ZM466.834 19.8889C465.889 20.6441 464.826 21.2378 463.687 21.6457L463.315 21.1241L461.402 22.4792L462.038 23.3606L463.099 22.5751L464.814 24.9735L463.705 25.7231L464.304 26.6045L466.211 25.2494L465.809 24.6498L470.857 21.0521L468.963 18.3779L466.828 19.9009L466.834 19.8889Z" fill="#2D1D38"/>
<path fill-rule="evenodd" clip-rule="evenodd" d="M465.286 65.7707L463.463 68.343L464.278 68.9306L465.429 67.3117L467.42 68.7327L466.599 69.89L467.42 70.4716L468.247 69.3143L469.656 70.3217L468.595 71.8087L469.416 72.3903L471.155 69.9499L465.292 65.7707H465.286Z" fill="#2D1D38"/>
<path fill-rule="evenodd" clip-rule="evenodd" d="M474.567 31.7551L470.766 32.8284C470.513 32.866 470.273 32.9627 470.065 33.1106C469.856 33.2586 469.686 33.4536 469.567 33.6798C469.374 34.112 469.342 34.5992 469.477 35.0529C469.591 35.519 469.876 35.9255 470.274 36.1922C470.455 36.2946 470.655 36.3572 470.862 36.3758C471.069 36.3944 471.277 36.3686 471.474 36.3001L472.643 35.9643L472.325 34.837L471.192 35.1668C471.045 35.221 470.883 35.221 470.736 35.1668C470.659 35.1308 470.591 35.0774 470.538 35.0108C470.485 34.9443 470.448 34.8663 470.43 34.7831C470.402 34.6987 470.391 34.6096 470.399 34.521C470.406 34.4323 470.431 34.3461 470.472 34.2674C470.521 34.1909 470.586 34.1264 470.662 34.0786C470.739 34.0309 470.826 34.0011 470.916 33.9916L474.807 32.8883C474.893 32.8473 474.987 32.826 475.083 32.826C475.178 32.826 475.272 32.8473 475.359 32.8883C475.491 32.9752 475.584 33.111 475.616 33.2661C475.641 33.3388 475.65 33.416 475.643 33.4924C475.636 33.5689 475.612 33.6429 475.574 33.7098C475.529 33.7834 475.467 33.8461 475.395 33.8938C475.322 33.9414 475.241 33.9727 475.155 33.9856L474.297 34.2254L474.627 35.3527L475.389 35.1368C475.626 35.081 475.849 34.9751 476.042 34.8262C476.236 34.6773 476.395 34.4888 476.51 34.2734C476.692 33.863 476.717 33.4003 476.582 32.9723C476.474 32.513 476.189 32.1147 475.79 31.863C475.605 31.7431 475.394 31.6678 475.175 31.6428C474.955 31.6179 474.733 31.644 474.525 31.7191L474.567 31.7551Z" fill="#2D1D38"/>
<path fill-rule="evenodd" clip-rule="evenodd" d="M468.93 32.7864L469.847 32.3727L469.026 30.5619L471.262 29.5545L471.844 30.8497L472.761 30.442L472.179 29.1408L473.75 28.4333L474.506 30.1062L475.423 29.6924L474.188 26.9523L467.635 29.9143L468.93 32.7864Z" fill="#2D1D38"/>
<path fill-rule="evenodd" clip-rule="evenodd" d="M392.117 39.1422L396.008 39.8378C396.248 39.9076 396.501 39.9217 396.747 39.8791C396.993 39.8365 397.226 39.7383 397.429 39.5919C397.794 39.2883 398.037 38.8621 398.112 38.3927C398.215 37.9215 398.136 37.4287 397.89 37.0136C397.771 36.8431 397.616 36.701 397.436 36.5974C397.255 36.4938 397.055 36.4311 396.847 36.414L395.648 36.1982L395.444 37.3494L396.607 37.5593C396.764 37.5737 396.911 37.639 397.027 37.7451C397.078 37.8141 397.113 37.8932 397.131 37.9769C397.148 38.0607 397.148 38.1473 397.129 38.2308C397.119 38.3186 397.091 38.4035 397.047 38.4799C397.003 38.5563 396.943 38.6226 396.871 38.6745C396.794 38.7206 396.708 38.7488 396.619 38.7571C396.53 38.7654 396.44 38.7535 396.356 38.7225L392.363 37.991C392.267 37.982 392.175 37.954 392.09 37.9087C392.006 37.8634 391.931 37.8016 391.871 37.7272C391.793 37.5909 391.771 37.4294 391.811 37.2774C391.819 37.1993 391.844 37.1238 391.884 37.0564C391.925 36.9891 391.98 36.9315 392.045 36.8877C392.118 36.8443 392.2 36.817 392.285 36.8077C392.37 36.7984 392.455 36.8072 392.536 36.8337L393.406 36.9896L393.61 35.8324L392.83 35.6945C392.593 35.6393 392.347 35.6364 392.109 35.6861C391.871 35.7359 391.646 35.8369 391.451 35.9823C391.11 36.2862 390.884 36.6978 390.81 37.1484C390.736 37.5991 390.818 38.0615 391.044 38.4587C391.158 38.647 391.315 38.8065 391.501 38.9249C391.687 39.0434 391.898 39.1177 392.117 39.1422Z" fill="#2D1D38"/>
<path fill-rule="evenodd" clip-rule="evenodd" d="M396.686 53.155C396.778 53.226 396.853 53.3168 396.905 53.4206C396.956 53.5244 396.984 53.6386 396.986 53.7546L397.987 53.6287L397.933 53.197C397.925 52.9642 397.855 52.7379 397.731 52.541C397.606 52.344 397.432 52.1835 397.226 52.0757C396.506 51.7279 395.379 51.8958 393.958 52.0757L391.56 52.3695L391.434 51.4041L397.574 50.6246L397.43 49.4614L390.289 50.3668L390.709 53.6706L394.906 53.143C395.967 53.0051 396.429 52.9931 396.662 53.143L396.686 53.155Z" fill="#2D1D38"/>
<path fill-rule="evenodd" clip-rule="evenodd" d="M391.212 46.5174C391.359 46.4266 391.53 46.3808 391.703 46.3854L395.654 46.2895C395.828 46.2723 396.003 46.3056 396.158 46.3854C396.233 46.4444 396.292 46.5202 396.332 46.6068C396.372 46.6933 396.39 46.788 396.386 46.8831C396.396 46.9777 396.383 47.0732 396.348 47.1618C396.314 47.2504 396.259 47.3296 396.188 47.3928C396.039 47.4863 395.866 47.5324 395.69 47.5247L391.739 47.6266C391.565 47.6442 391.389 47.6086 391.236 47.5247C391.16 47.4664 391.099 47.3908 391.058 47.3042C391.018 47.2177 390.998 47.1226 391.002 47.027C390.993 46.9315 391.008 46.8353 391.045 46.7466C391.081 46.658 391.138 46.5793 391.212 46.5174ZM391.727 48.7959L395.762 48.6939C395.996 48.7139 396.232 48.6775 396.449 48.5878C396.666 48.4981 396.858 48.3576 397.009 48.1783C397.298 47.8042 397.437 47.3361 397.399 46.8651C397.409 46.3917 397.25 45.9302 396.949 45.564C396.787 45.3933 396.587 45.2635 396.365 45.1853C396.143 45.1072 395.906 45.0828 395.672 45.1143L391.643 45.2162C391.409 45.1967 391.172 45.2333 390.955 45.323C390.737 45.4127 390.543 45.5528 390.39 45.7319C390.125 46.1182 389.989 46.5783 390.001 47.0467C390.013 47.5151 390.172 47.9677 390.456 48.3402C390.614 48.5079 390.809 48.6365 391.026 48.7156C391.242 48.7947 391.474 48.8222 391.703 48.7959H391.727Z" fill="#2D1D38"/>
<path fill-rule="evenodd" clip-rule="evenodd" d="M392.903 58.2216L392.633 57.2803L397.621 55.8592L397.975 57.1184C396.852 57.1545 395.741 57.3566 394.678 57.718L392.903 58.2216ZM398.299 58.3116L398.473 58.9112L400.721 58.2696L400.421 57.2383L399.156 57.628L398.347 54.7919L399.648 54.4501L399.354 53.4068L397.1 54.0544L397.292 54.7259L391.332 56.4168L392.303 59.6247L394.821 58.9112C395.962 58.52 397.159 58.3175 398.365 58.3116H398.299Z" fill="#2D1D38"/>
<path fill-rule="evenodd" clip-rule="evenodd" d="M398.898 34.843L395.66 33.7458L395.798 33.35L399.347 33.464L399.725 32.3547L395.9 32.2587C395.749 31.9846 395.517 31.7644 395.235 31.6292L394.095 31.0296C394.017 30.9756 393.76 30.8377 393.844 30.5978L393.909 30.418L392.902 30.0762L392.794 30.388C392.708 30.6341 392.679 30.8966 392.71 31.1555C392.743 31.2862 392.805 31.4078 392.891 31.5116C392.977 31.6153 393.086 31.6985 393.208 31.7551L394.323 32.3547C394.887 32.6485 394.923 32.8464 394.833 33.0562L394.713 33.428L392.069 32.5346L391.703 33.6378L398.526 35.9523L398.898 34.837V34.843Z" fill="#2D1D38"/>
<path fill-rule="evenodd" clip-rule="evenodd" d="M396.411 42.3621L396.363 43.0396L393.965 42.8597L394.001 42.3321C393.997 42.2294 394.017 42.1272 394.061 42.0343C394.105 41.9413 394.171 41.8604 394.253 41.7984C394.343 41.7385 394.499 41.6965 394.948 41.7325L395.548 41.7805C395.772 41.7708 395.995 41.8118 396.201 41.9004C396.274 41.9504 396.33 42.0214 396.361 42.1039C396.392 42.1865 396.397 42.2766 396.375 42.3621H396.411ZM392.97 42.7998L391.171 42.6619L391.213 42.0623C391.211 41.9758 391.23 41.8901 391.269 41.8127C391.307 41.7353 391.364 41.6687 391.435 41.6186C391.575 41.5607 391.728 41.5401 391.879 41.5586H392.352C392.53 41.5692 392.701 41.6317 392.844 41.7385C392.899 41.8 392.941 41.8723 392.966 41.9507C392.992 42.0291 393.002 42.112 392.994 42.1942L392.946 42.7938L392.97 42.7998ZM397.454 42.0263C397.493 41.8219 397.472 41.6107 397.393 41.4181C397.314 41.2256 397.181 41.0599 397.011 40.941C396.74 40.7657 396.428 40.6663 396.105 40.6532L394.906 40.5633C394.641 40.5284 394.372 40.5488 394.115 40.6232C393.974 40.6671 393.846 40.7446 393.741 40.849C393.637 40.9535 393.559 41.0818 393.515 41.2228C393.511 41.1028 393.477 40.9857 393.418 40.8813C393.358 40.777 393.274 40.6885 393.174 40.6232C392.972 40.5018 392.743 40.4318 392.508 40.4194L391.909 40.3774C391.487 40.3103 391.057 40.4115 390.709 40.6592C390.569 40.769 390.454 40.9089 390.374 41.0687C390.294 41.2284 390.251 41.404 390.248 41.5826L390.086 43.7472L397.281 44.2928L397.448 42.0263H397.454Z" fill="#2D1D38"/>
<path fill-rule="evenodd" clip-rule="evenodd" d="M394.765 63.1864L394.543 62.7007C394.506 62.624 394.487 62.54 394.487 62.4548C394.487 62.3697 394.506 62.2856 394.543 62.209C394.638 62.0745 394.775 61.9754 394.933 61.9272L395.634 61.6034C395.789 61.5197 395.958 61.4629 396.132 61.4355C396.366 61.4355 396.432 61.5734 396.504 61.7233L396.761 62.3229L394.783 63.2103L394.765 63.1864ZM400.407 60.638L397.649 61.8852C397.568 61.6032 397.463 61.3285 397.337 61.0638C397.189 60.7128 396.912 60.4318 396.564 60.2783C396.156 60.1813 395.727 60.2435 395.364 60.4522L394.387 60.8959C394.192 60.9605 394.011 61.0638 393.857 61.1998C393.702 61.3358 393.577 61.5017 393.488 61.6873C393.361 62.082 393.386 62.5099 393.56 62.8866L394.363 64.6854L400.922 61.6873L400.443 60.626L400.407 60.638Z" fill="#2D1D38"/>
<path fill-rule="evenodd" clip-rule="evenodd" d="M402.668 64.9672H402.662L402.668 64.9729V64.9672Z" fill="#2D1D38"/>
<path fill-rule="evenodd" clip-rule="evenodd" d="M464.862 71.8087L465.282 72.2284L467.788 74.393L468.55 73.5116L463.112 68.7927L462.344 69.6801L463.333 70.5375L464.616 73.3137L464.251 72.9359L461.547 70.5915L460.779 71.4789L466.223 76.1918L466.985 75.3104L466.151 74.5849L464.862 71.8087Z" fill="#2D1D38"/>
<path fill-rule="evenodd" clip-rule="evenodd" d="M405.494 69.5602C405.283 69.5402 405.071 69.5681 404.872 69.6418C404.674 69.7156 404.495 69.8332 404.349 69.9859L403.431 70.7774L404.199 71.6648L405.092 70.8853C405.204 70.7734 405.349 70.7017 405.506 70.6814C405.59 70.6821 405.673 70.7026 405.748 70.7411C405.823 70.7796 405.888 70.8352 405.937 70.9033C406.061 71.0344 406.128 71.2089 406.123 71.389C406.113 71.4795 406.082 71.5665 406.034 71.6433C405.985 71.7202 405.919 71.785 405.841 71.8327L402.784 74.4769C402.72 74.5476 402.641 74.6031 402.553 74.6394C402.464 74.6757 402.369 74.6919 402.274 74.6868C402.196 74.6758 402.121 74.6494 402.053 74.6093C401.985 74.5692 401.926 74.516 401.878 74.453C401.825 74.3956 401.784 74.3273 401.759 74.2528C401.734 74.1783 401.726 74.0993 401.734 74.0212C401.746 73.9365 401.775 73.8552 401.821 73.7828C401.866 73.7104 401.927 73.6486 401.998 73.6015L402.664 73.0019L401.902 72.1145L401.303 72.6301C401.114 72.7875 400.961 72.9845 400.857 73.2073C400.752 73.4301 400.698 73.6732 400.697 73.9193C400.705 74.3654 400.878 74.7928 401.183 75.1185C401.328 75.3047 401.509 75.4604 401.715 75.5766C401.921 75.6929 402.147 75.7674 402.382 75.7961C402.6 75.8241 402.821 75.8019 403.029 75.7312C403.237 75.6606 403.426 75.5433 403.581 75.3883L406.579 72.798C406.785 72.6566 406.956 72.4693 407.078 72.2508C407.199 72.0324 407.269 71.7887 407.28 71.5389C407.264 71.0625 407.085 70.6061 406.773 70.2459C406.461 69.8858 406.035 69.6437 405.566 69.5602H405.494Z" fill="#2D1D38"/>
<path fill-rule="evenodd" clip-rule="evenodd" d="M401.091 62.233L400.216 62.7307L401.205 64.4575L399.083 65.6747L398.375 64.4455L397.506 64.9432L398.213 66.1784L396.708 67.0358L395.797 65.4469L394.928 65.9506L396.427 68.5588L402.662 64.9672L401.091 62.233Z" fill="#2D1D38"/>
<path fill-rule="evenodd" clip-rule="evenodd" d="M403.545 68.0732L401.585 69.4642L401.285 69.0325C401.212 68.9533 401.16 68.8566 401.135 68.7515C401.109 68.6465 401.112 68.5368 401.141 68.4329C401.177 68.331 401.273 68.2051 401.639 67.9412L402.142 67.5815C402.514 67.3176 402.634 67.2697 402.742 67.2577C402.97 67.2277 403.072 67.3596 403.174 67.4975L403.563 68.0492L403.545 68.0732ZM400.769 70.0459L399.318 71.0772L398.971 70.5855C398.916 70.5199 398.877 70.4423 398.857 70.3591C398.837 70.2758 398.837 70.1891 398.857 70.1058C398.925 69.9709 399.029 69.8569 399.157 69.776L399.54 69.5002C399.678 69.3877 399.848 69.3225 400.026 69.3143C400.109 69.3221 400.189 69.3488 400.259 69.3925C400.33 69.4362 400.39 69.4956 400.434 69.5662L400.769 70.0399V70.0459ZM405.044 68.4449L403.731 66.5921C403.627 66.4114 403.474 66.2642 403.289 66.1675C403.104 66.0709 402.896 66.0289 402.688 66.0465C402.37 66.0784 402.068 66.2012 401.819 66.4003L400.847 67.0958C400.608 67.2314 400.403 67.4201 400.248 67.6474C400.17 67.7679 400.121 67.9052 400.107 68.048C400.092 68.1909 400.112 68.3351 400.164 68.4689C400.088 68.3868 399.995 68.323 399.891 68.2825C399.787 68.242 399.675 68.2257 399.564 68.235C399.33 68.2639 399.108 68.3573 398.923 68.5049L398.437 68.8526C398.073 69.0726 397.809 69.4251 397.7 69.836C397.669 70.0114 397.674 70.1913 397.715 70.3645C397.756 70.5378 397.833 70.7008 397.939 70.8433L399.199 72.6421L405.062 68.4449H405.044Z" fill="#2D1D38"/>
<path fill-rule="evenodd" clip-rule="evenodd" d="M468.41 74.5369C468.088 74.5972 467.798 74.7718 467.594 75.0286C467.469 75.1589 467.372 75.3135 467.308 75.4828C467.244 75.6521 467.216 75.8326 467.224 76.0133C467.233 76.194 467.278 76.371 467.357 76.5337C467.436 76.6963 467.547 76.8411 467.684 76.9593L468.284 76.2577C468.169 76.1738 468.08 76.0597 468.026 75.928C467.995 75.8553 467.986 75.7752 468 75.6975C468.014 75.6199 468.05 75.5478 468.104 75.4903C468.156 75.4263 468.224 75.3775 468.301 75.349C468.378 75.3205 468.461 75.3134 468.542 75.3284C468.684 75.3654 468.813 75.4424 468.913 75.5502L469.513 74.8487C469.364 74.7174 469.188 74.6213 468.997 74.5673C468.806 74.5133 468.605 74.5029 468.41 74.5369Z" fill="#2D1D38"/>
<path d="M190.763 27.9491V39.4314H187.897V30.9608H182.866V39.4314H180V27.9491H190.763Z" fill="#2D1D38"/>
<path d="M205.155 31.2269C205.477 31.9716 205.64 32.7873 205.64 33.679C205.64 34.5706 205.477 35.3864 205.155 36.131C204.834 36.8756 204.402 37.5111 203.859 38.047C203.317 38.583 202.693 39.0004 201.987 39.2944C201.281 39.5932 200.542 39.7403 199.774 39.7403C198.914 39.7403 198.185 39.5932 197.575 39.3039C196.965 39.0146 196.562 38.6541 196.37 38.2225V44.1748H193.504V27.9497H196.279V29.1543C196.476 28.7227 196.884 28.3623 197.508 28.073C198.132 27.7837 198.871 27.6367 199.731 27.6367C200.513 27.6367 201.262 27.7837 201.977 28.073C202.693 28.3623 203.321 28.7749 203.859 29.3109C204.402 29.8468 204.834 30.4871 205.155 31.2269ZM202.505 34.9168C202.669 34.5374 202.755 34.1248 202.755 33.679C202.755 33.2332 202.673 32.8253 202.505 32.4506C202.337 32.0806 202.112 31.7581 201.819 31.4925C201.526 31.2269 201.171 31.0182 200.758 30.8665C200.345 30.7195 199.889 30.6436 199.394 30.6436C198.674 30.6436 198.031 30.7906 197.479 31.0799C196.922 31.3692 196.552 31.7297 196.375 32.1613V35.2156C196.557 35.6472 196.922 36.0077 197.479 36.297C198.036 36.5863 198.674 36.7333 199.394 36.7333C199.889 36.7333 200.345 36.6574 200.758 36.5104C201.171 36.3634 201.526 36.1547 201.819 35.8844C202.112 35.6188 202.342 35.2962 202.505 34.9168Z" fill="#2D1D38"/>
<path d="M210.495 27.9491V34.8404L215.752 27.9491H218.618V39.4314H215.795V32.5449L210.538 39.4314H207.672V27.9491H210.495Z" fill="#2D1D38"/>
<path d="M232.925 33.7027C232.925 34.5801 232.757 35.3864 232.431 36.1215C232.099 36.8566 231.653 37.4922 231.086 38.0281C230.52 38.564 229.872 38.9814 229.132 39.2849C228.393 39.5885 227.615 39.7403 226.785 39.7403C225.959 39.7403 225.177 39.5885 224.437 39.2849C223.698 38.9814 223.05 38.5593 222.483 38.0281C221.922 37.4922 221.47 36.8566 221.139 36.1215C220.808 35.3864 220.645 34.5801 220.645 33.7027C220.645 32.8395 220.813 32.038 221.139 31.2933C221.47 30.5487 221.917 29.9084 222.483 29.363C223.05 28.8223 223.698 28.3955 224.437 28.092C225.172 27.7884 225.954 27.6367 226.785 27.6367C227.61 27.6367 228.393 27.7884 229.132 28.092C229.872 28.3955 230.52 28.8223 231.086 29.363C231.648 29.9037 232.099 30.5487 232.431 31.2933C232.757 32.038 232.925 32.8395 232.925 33.7027ZM223.784 32.4648C223.616 32.8442 223.535 33.2568 223.535 33.7027C223.535 34.1485 223.616 34.5564 223.784 34.9311C223.947 35.301 224.178 35.6235 224.471 35.8891C224.764 36.1547 225.109 36.3634 225.508 36.5151C225.906 36.6622 226.329 36.7381 226.78 36.7381C227.231 36.7381 227.654 36.6622 228.042 36.5151C228.431 36.3681 228.777 36.1595 229.07 35.8891C229.363 35.6235 229.598 35.301 229.771 34.9311C229.944 34.5611 230.03 34.1485 230.03 33.7027C230.03 33.2568 229.944 32.8442 229.771 32.4648C229.598 32.0854 229.363 31.7629 229.07 31.4973C228.777 31.2317 228.436 31.023 228.042 30.8713C227.649 30.7242 227.231 30.6483 226.78 30.6483C226.329 30.6483 225.901 30.7242 225.508 30.8713C225.109 31.0182 224.764 31.2269 224.471 31.4973C224.178 31.7629 223.947 32.0854 223.784 32.4648Z" fill="#2D1D38"/>
<path d="M246.558 31.2269C246.88 31.9716 247.043 32.7873 247.043 33.679C247.043 34.5706 246.88 35.3864 246.558 36.131C246.236 36.8756 245.804 37.5111 245.261 38.047C244.719 38.583 244.095 39.0004 243.389 39.2944C242.684 39.5932 241.944 39.7403 241.176 39.7403C240.317 39.7403 239.587 39.5932 238.977 39.3039C238.368 39.0146 237.964 38.6541 237.773 38.2225V44.1748H234.906V27.9497H237.681V29.1543C237.878 28.7227 238.286 28.3623 238.91 28.073C239.534 27.7837 240.274 27.6367 241.133 27.6367C241.916 27.6367 242.665 27.7837 243.38 28.073C244.095 28.3623 244.724 28.7749 245.261 29.3109C245.799 29.8468 246.231 30.4871 246.558 31.2269ZM243.903 34.9168C244.066 34.5374 244.153 34.1248 244.153 33.679C244.153 33.2332 244.071 32.8253 243.903 32.4506C243.735 32.0806 243.51 31.7581 243.217 31.4925C242.924 31.2269 242.568 31.0182 242.155 30.8665C241.743 30.7195 241.287 30.6436 240.792 30.6436C240.072 30.6436 239.429 30.7906 238.877 31.0799C238.32 31.3692 237.95 31.7297 237.773 32.1613V35.2156C237.955 35.6472 238.32 36.0077 238.877 36.297C239.434 36.5863 240.072 36.7333 240.792 36.7333C241.287 36.7333 241.743 36.6574 242.155 36.5104C242.568 36.3634 242.924 36.1547 243.217 35.8844C243.51 35.614 243.74 35.2962 243.903 34.9168Z" fill="#2D1D38"/>
<path d="M251.887 27.9491V34.8404L257.144 27.9491H260.01V39.4314H257.187V32.5449L251.93 39.4314H249.064V27.9491H251.887Z" fill="#2D1D38"/>
<path d="M271.957 30.9608H268.366V39.4314H265.501V30.9608H261.914V27.9491H271.957V30.9608Z" fill="#2D1D38"/>
<path d="M279.564 36.8894C280.284 36.8894 280.98 36.7614 281.638 36.5005C282.3 36.2396 282.795 35.8934 283.126 35.4618L284.004 37.6483C283.644 38.2411 283.069 38.7391 282.276 39.1422C281.484 39.5454 280.548 39.7445 279.468 39.7445C278.58 39.7445 277.759 39.6023 276.996 39.3225C276.237 39.0379 275.579 38.6395 275.022 38.1178C274.465 37.5961 274.029 36.9653 273.712 36.2254C273.395 35.4808 273.236 34.6413 273.236 33.707C273.236 32.8912 273.375 32.1182 273.654 31.3878C273.932 30.6621 274.331 30.0171 274.85 29.4575C275.368 28.9026 275.992 28.4567 276.722 28.1295C277.451 27.8022 278.272 27.641 279.194 27.641C280.053 27.641 280.831 27.807 281.527 28.1437C282.228 28.4757 282.823 28.9215 283.308 29.4812C283.798 30.0408 284.177 30.6811 284.446 31.4115C284.715 32.1419 284.854 32.9054 284.854 33.707C284.854 33.873 284.85 34.0437 284.845 34.2287C284.835 34.4137 284.816 34.5749 284.787 34.7077H276.17C276.304 35.4666 276.678 36.0215 277.298 36.3677C277.922 36.7139 278.676 36.8894 279.564 36.8894ZM281.935 32.3885C281.844 31.7814 281.542 31.3166 281.033 30.9941C280.519 30.6763 279.909 30.5151 279.204 30.5151C278.498 30.5151 277.864 30.6763 277.307 30.9941C276.75 31.3166 276.414 31.7767 276.295 32.3885H281.935Z" fill="#2D1D38"/>
<path d="M296.2 30.9608H292.609V39.4314H289.747V30.9608H286.156V27.9491H296.2V30.9608Z" fill="#2D1D38"/>
<path d="M301.786 30.3017C301.503 30.3017 301.244 30.3444 301.008 30.4298C300.768 30.5151 300.552 30.629 300.36 30.7665C300.168 30.904 299.99 31.0653 299.832 31.2455C299.674 31.4257 299.539 31.6202 299.419 31.8241L298.396 30.093C298.483 29.761 298.632 29.448 298.843 29.154C299.055 28.8599 299.314 28.6038 299.621 28.3856C299.928 28.1674 300.283 27.992 300.687 27.8639C301.085 27.7359 301.522 27.6695 301.988 27.6695C302.592 27.6695 303.13 27.7596 303.596 27.9398C304.062 28.12 304.45 28.3714 304.767 28.6939C305.079 29.0164 305.32 29.3911 305.483 29.8179C305.646 30.2448 305.728 30.7049 305.728 31.1981C305.728 31.6154 305.679 31.9996 305.583 32.3458C305.487 32.6921 305.343 33.0336 305.151 33.3655C304.959 33.6975 304.724 34.0343 304.446 34.3758C304.162 34.7172 303.84 35.0919 303.471 35.4998L302.305 36.7993H305.958V39.4315H298.488V37.3922L301.815 33.8161C302.05 33.56 302.256 33.3371 302.429 33.1426C302.602 32.9482 302.746 32.7679 302.861 32.5877C302.977 32.4075 303.063 32.2415 303.121 32.0755C303.178 31.9095 303.212 31.7246 303.212 31.5206C303.212 31.1791 303.082 30.8898 302.828 30.6527C302.564 30.4203 302.223 30.3017 301.786 30.3017Z" fill="#2D1D38"/>
<path d="M310.897 28.1105C311.641 27.8165 312.423 27.6695 313.254 27.6695C314.08 27.6695 314.862 27.8165 315.611 28.1105C316.355 28.4046 317.008 28.8172 317.565 29.3484C318.127 29.8796 318.568 30.5151 318.895 31.255C319.221 31.9949 319.384 32.8059 319.384 33.688C319.384 34.5797 319.221 35.3907 318.895 36.1258C318.568 36.861 318.127 37.4965 317.565 38.0277C317.003 38.5589 316.355 38.9715 315.611 39.2656C314.867 39.5596 314.08 39.7066 313.254 39.7066C312.428 39.7066 311.641 39.5596 310.897 39.2656C310.153 38.9715 309.499 38.5589 308.942 38.0277C308.381 37.4965 307.939 36.861 307.613 36.1258C307.286 35.3907 307.123 34.5797 307.123 33.688C307.123 32.8059 307.286 31.9949 307.613 31.255C307.939 30.5151 308.381 29.8796 308.942 29.3484C309.499 28.822 310.153 28.4093 310.897 28.1105ZM313.254 37.0744C313.753 37.0744 314.224 36.9938 314.665 36.823C315.107 36.657 315.486 36.4246 315.808 36.1306C316.129 35.8365 316.379 35.4808 316.566 35.0682C316.749 34.6556 316.845 34.1955 316.845 33.6928C316.845 33.1995 316.754 32.7443 316.566 32.3221C316.379 31.9047 316.129 31.5491 315.808 31.2502C315.486 30.9562 315.107 30.7238 314.665 30.5578C314.224 30.3918 313.753 30.3064 313.254 30.3064C312.745 30.3064 312.27 30.3918 311.837 30.5578C311.405 30.7238 311.026 30.9562 310.705 31.2502C310.383 31.5443 310.128 31.9047 309.946 32.3221C309.763 32.7395 309.668 33.1995 309.668 33.6928C309.668 34.2003 309.759 34.6556 309.946 35.0682C310.128 35.4808 310.383 35.8365 310.705 36.1306C311.026 36.4246 311.401 36.657 311.837 36.823C312.27 36.989 312.74 37.0744 313.254 37.0744Z" fill="#2D1D38"/>
<path d="M323.452 37.0837C323.97 37.0837 324.393 36.9604 324.71 36.7138C325.032 36.4672 325.19 36.1352 325.19 35.7178C325.19 35.3431 325.046 35.0443 324.758 34.8262C324.47 34.608 324.085 34.4989 323.596 34.4989C323.26 34.4989 322.972 34.5369 322.727 34.6128C322.482 34.6886 322.3 34.7693 322.184 34.8546L321.776 33.0571L323.774 30.5861H320.557V27.9491H327.072V29.8273L325.089 32.2319C325.372 32.2983 325.665 32.4073 325.972 32.5591C326.28 32.7156 326.563 32.929 326.827 33.1994C327.086 33.4745 327.302 33.816 327.47 34.2333C327.638 34.6507 327.72 35.1534 327.72 35.7415C327.72 36.287 327.619 36.7992 327.417 37.2829C327.216 37.762 326.932 38.1841 326.558 38.5445C326.184 38.905 325.737 39.1848 325.209 39.3935C324.681 39.6021 324.095 39.7065 323.447 39.7065C322.958 39.7065 322.52 39.6543 322.132 39.5453C321.743 39.4362 321.402 39.2986 321.109 39.1184C320.816 38.9429 320.571 38.7484 320.379 38.5303C320.183 38.3169 320.043 38.0987 319.957 37.8711L320.543 35.751C320.854 36.1257 321.239 36.4387 321.695 36.6901C322.156 36.9557 322.741 37.0837 323.452 37.0837Z" fill="#2D1D38"/>
<path d="M332.659 28.1105C333.403 27.8165 334.186 27.6695 335.016 27.6695C335.842 27.6695 336.624 27.8165 337.373 28.1105C338.118 28.4046 338.77 28.8172 339.327 29.3484C339.889 29.8796 340.331 30.5151 340.657 31.255C340.984 31.9949 341.147 32.8059 341.147 33.688C341.147 34.5797 340.984 35.3907 340.657 36.1258C340.331 36.861 339.889 37.4965 339.327 38.0277C338.765 38.5589 338.118 38.9715 337.373 39.2656C336.629 39.5596 335.847 39.7066 335.016 39.7066C334.191 39.7066 333.403 39.5596 332.659 39.2656C331.915 38.9715 331.262 38.5589 330.7 38.0277C330.139 37.4965 329.697 36.861 329.371 36.1258C329.044 35.3907 328.881 34.5797 328.881 33.688C328.881 32.8059 329.044 31.9949 329.371 31.255C329.697 30.5151 330.139 29.8796 330.7 29.3484C331.262 28.822 331.915 28.4093 332.659 28.1105ZM335.016 37.0744C335.515 37.0744 335.986 36.9938 336.428 36.823C336.87 36.657 337.248 36.4246 337.57 36.1306C337.892 35.8365 338.146 35.4808 338.329 35.0682C338.511 34.6556 338.607 34.1955 338.607 33.6928C338.607 33.1995 338.516 32.7443 338.329 32.3221C338.146 31.9047 337.892 31.5491 337.57 31.2502C337.248 30.9562 336.87 30.7238 336.428 30.5578C335.986 30.3918 335.515 30.3064 335.016 30.3064C334.507 30.3064 334.032 30.3918 333.6 30.5578C333.163 30.7238 332.789 30.9562 332.467 31.2502C332.145 31.5443 331.896 31.9047 331.709 32.3221C331.521 32.7395 331.43 33.1995 331.43 33.6928C331.43 34.2003 331.521 34.6556 331.709 35.0682C331.896 35.4808 332.145 35.8365 332.467 36.1306C332.789 36.4246 333.163 36.657 333.6 36.823C334.032 36.989 334.502 37.0744 335.016 37.0744Z" fill="#2D1D38"/>
<path d="M347.317 26H344.988L342.305 30.591H344.628L347.317 26Z" fill="#2D1D38"/>
<path d="M344.988 26H347.316L350 30.591H347.677L344.988 26Z" fill="#2D1D38"/>
<path d="M188.284 50.9658V54.3759L190.886 50.9658H192.307V56.6524H190.91V53.2424L188.303 56.6524H186.887V50.9658H188.284Z" fill="#2D1D38"/>
<path d="M193.772 55.1632C193.892 54.964 194.007 54.7411 194.118 54.4897C194.228 54.2384 194.329 53.9633 194.42 53.655C194.511 53.3514 194.579 53.0195 194.631 52.6685C194.684 52.3176 194.708 51.9381 194.708 51.5302V50.9658H198.866V55.1585H199.672V58.1606H198.299V56.6477H194.555V58.1606H193.182V55.1585H193.772V55.1632ZM197.445 55.1632V52.4598H195.98C195.913 53.1001 195.812 53.636 195.678 54.0676C195.544 54.4992 195.4 54.8644 195.241 55.1632H197.445Z" fill="#2D1D38"/>
<path d="M203.404 55.3907C203.759 55.3907 204.104 55.3243 204.431 55.1963C204.757 55.0682 205.002 54.8975 205.17 54.684L205.607 55.7654C205.429 56.0595 205.141 56.3061 204.753 56.5053C204.359 56.7045 203.898 56.8041 203.36 56.8041C202.919 56.8041 202.515 56.7329 202.136 56.5954C201.762 56.4579 201.435 56.2587 201.157 55.9978C200.878 55.7369 200.667 55.4287 200.509 55.0587C200.35 54.6935 200.273 54.2762 200.273 53.8114C200.273 53.4083 200.341 53.0241 200.48 52.6636C200.619 52.3032 200.816 51.9854 201.07 51.7103C201.33 51.4352 201.637 51.2171 201.997 51.0558C202.357 50.8946 202.765 50.8139 203.221 50.8139C203.644 50.8139 204.032 50.8946 204.378 51.0606C204.724 51.2265 205.017 51.4495 205.261 51.7245C205.501 51.9996 205.693 52.3174 205.828 52.6779C205.962 53.0383 206.03 53.4177 206.03 53.8161C206.03 53.8968 206.03 53.9821 206.025 54.077C206.02 54.1671 206.01 54.2477 205.996 54.3141H201.728C201.795 54.6888 201.983 54.9639 202.285 55.1346C202.592 55.3054 202.962 55.3907 203.404 55.3907ZM204.575 53.1616C204.532 52.8581 204.383 52.6304 204.128 52.4739C203.874 52.3174 203.572 52.2368 203.226 52.2368C202.88 52.2368 202.563 52.3174 202.285 52.4739C202.011 52.6304 201.843 52.8628 201.781 53.1616H204.575Z" fill="#2D1D38"/>
<path d="M212.861 52.5878C213.02 52.9577 213.101 53.3608 213.101 53.8019C213.101 54.243 213.02 54.6508 212.861 55.016C212.703 55.386 212.487 55.699 212.218 55.9646C211.949 56.2302 211.642 56.4341 211.291 56.5812C210.941 56.7282 210.576 56.8041 210.197 56.8041C209.77 56.8041 209.41 56.7329 209.107 56.5906C208.805 56.4484 208.608 56.2681 208.507 56.0547V59H207.086V50.9657H208.459V51.5633C208.555 51.3499 208.757 51.1697 209.069 51.0273C209.376 50.8851 209.746 50.8139 210.168 50.8139C210.557 50.8139 210.927 50.8851 211.282 51.0273C211.637 51.1697 211.944 51.3736 212.213 51.6392C212.487 51.9048 212.698 52.2226 212.861 52.5878ZM211.546 54.4137C211.627 54.224 211.671 54.0201 211.671 53.8019C211.671 53.5837 211.627 53.3798 211.546 53.1948C211.464 53.0098 211.349 52.8533 211.205 52.7205C211.061 52.5878 210.883 52.4834 210.682 52.4122C210.475 52.3411 210.25 52.3032 210.005 52.3032C209.65 52.3032 209.333 52.3743 209.054 52.5166C208.776 52.6589 208.593 52.8391 208.507 53.0525V54.5655C208.598 54.7789 208.781 54.9591 209.054 55.1014C209.328 55.2437 209.645 55.3149 210.005 55.3149C210.25 55.3149 210.475 55.2769 210.682 55.2058C210.888 55.1346 211.061 55.0303 211.205 54.8975C211.354 54.7647 211.464 54.6034 211.546 54.4137Z" fill="#2D1D38"/>
<path d="M214.085 51.8151C214.19 51.6538 214.32 51.5116 214.483 51.3835C214.641 51.2602 214.819 51.1558 215.016 51.0705C215.208 50.9851 215.414 50.9234 215.635 50.876C215.856 50.8333 216.077 50.8096 216.298 50.8096C216.677 50.8096 217.023 50.8618 217.33 50.9614C217.637 51.0657 217.906 51.2127 218.127 51.4025C218.348 51.5922 218.525 51.8293 218.645 52.1139C218.77 52.3985 218.828 52.721 218.828 53.0814V56.648H217.455V56.15C217.315 56.3634 217.095 56.5247 216.797 56.6338C216.499 56.7428 216.192 56.7998 215.88 56.7998C215.573 56.7998 215.294 56.7571 215.04 56.667C214.785 56.5768 214.565 56.4535 214.377 56.297C214.185 56.1405 214.041 55.9461 213.936 55.7137C213.83 55.4812 213.777 55.2204 213.777 54.9358C213.777 54.6323 213.84 54.3667 213.96 54.1343C214.085 53.9019 214.248 53.7075 214.459 53.551C214.666 53.3944 214.906 53.2711 215.179 53.1905C215.453 53.1099 215.731 53.0672 216.024 53.0672C216.399 53.0672 216.701 53.1099 216.936 53.1952C217.171 53.2806 217.33 53.3707 217.412 53.4656V53.3185C217.412 52.9866 217.301 52.721 217.08 52.5218C216.859 52.3226 216.538 52.2229 216.115 52.2229C215.75 52.2229 215.419 52.2941 215.126 52.4316C214.834 52.5692 214.598 52.7494 214.425 52.9628L214.085 51.8151ZM217.412 54.6086C217.354 54.5042 217.219 54.4141 217.023 54.3382C216.821 54.2624 216.591 54.2244 216.331 54.2244C215.957 54.2244 215.678 54.2814 215.491 54.3999C215.304 54.5185 215.213 54.6702 215.213 54.8647C215.213 55.0544 215.309 55.2109 215.496 55.3247C215.688 55.4386 215.962 55.4955 216.317 55.4955C216.576 55.4955 216.807 55.4481 217.008 55.3579C217.21 55.2678 217.344 55.154 217.412 55.0212V54.6086Z" fill="#2D1D38"/>
<path d="M225.35 50.9658H226.723L227.625 56.6524H226.219L225.72 53.6503L224.375 56.6524H223.238L221.898 53.6503L221.384 56.6524H219.939L220.832 50.9658H222.109L223.727 54.5988L225.35 50.9658Z" fill="#2D1D38"/>
<path d="M230.173 50.9658V54.3759L232.774 50.9658H234.196V56.6524H232.799V53.2424L230.197 56.6524H228.775V50.9658H230.173Z" fill="#2D1D38"/>
<path d="M243.227 55.7891C243.054 56.0689 242.776 56.3061 242.387 56.5053C241.998 56.7045 241.547 56.8041 241.033 56.8041C240.63 56.8041 240.251 56.7282 239.886 56.5812C239.526 56.4341 239.204 56.2302 238.926 55.9646C238.647 55.699 238.427 55.3812 238.258 55.016C238.095 54.6508 238.014 54.243 238.014 53.8019C238.014 53.3608 238.095 52.9529 238.258 52.5878C238.422 52.2178 238.643 51.9048 238.926 51.6392C239.209 51.3736 239.526 51.1697 239.886 51.0273C240.246 50.8851 240.63 50.8139 241.033 50.8139C241.547 50.8139 241.993 50.9135 242.368 51.1127C242.742 51.3119 243.016 51.5491 243.179 51.8194L242.776 52.9909C242.627 52.8154 242.416 52.6541 242.138 52.5166C241.864 52.3791 241.547 52.3079 241.187 52.3079C240.663 52.3079 240.251 52.4454 239.934 52.7205C239.622 52.9956 239.464 53.3608 239.464 53.8066C239.464 54.2572 239.622 54.6177 239.934 54.8975C240.246 55.1773 240.663 55.3149 241.187 55.3149C241.552 55.3149 241.874 55.2437 242.147 55.0967C242.421 54.9497 242.637 54.7884 242.795 54.6129L243.227 55.7891Z" fill="#2D1D38"/>
<path d="M248.745 52.4551H246.969V56.6524H245.552V52.4551H243.771V50.9658H248.745V52.4551Z" fill="#2D1D38"/>
<path d="M249.593 51.8151C249.698 51.6538 249.828 51.5116 249.991 51.3835C250.149 51.2602 250.327 51.1558 250.524 51.0705C250.716 50.9851 250.922 50.9234 251.143 50.876C251.364 50.8333 251.585 50.8096 251.806 50.8096C252.185 50.8096 252.53 50.8618 252.838 50.9614C253.145 51.0657 253.414 51.2127 253.634 51.4025C253.855 51.5922 254.033 51.8293 254.153 52.1139C254.278 52.3985 254.335 52.721 254.335 53.0814V56.648H252.963V56.15C252.818 56.3634 252.602 56.5247 252.305 56.6338C252.007 56.7428 251.7 56.7998 251.388 56.7998C251.08 56.7998 250.802 56.7571 250.548 56.667C250.294 56.5768 250.073 56.4535 249.885 56.297C249.693 56.1405 249.549 55.9461 249.444 55.7137C249.338 55.4812 249.285 55.2204 249.285 54.9358C249.285 54.6323 249.348 54.3667 249.468 54.1343C249.593 53.9019 249.756 53.7075 249.967 53.551C250.173 53.3944 250.413 53.2711 250.687 53.1905C250.961 53.1099 251.239 53.0672 251.532 53.0672C251.906 53.0672 252.209 53.1099 252.444 53.1952C252.679 53.2806 252.838 53.3707 252.92 53.4656V53.3185C252.92 52.9866 252.809 52.721 252.588 52.5218C252.367 52.3226 252.045 52.2229 251.623 52.2229C251.259 52.2229 250.927 52.2941 250.634 52.4316C250.341 52.5692 250.106 52.7494 249.933 52.9628L249.593 51.8151ZM252.924 54.6086C252.866 54.5042 252.732 54.4141 252.535 54.3382C252.334 54.2624 252.103 54.2244 251.844 54.2244C251.47 54.2244 251.191 54.2814 251.009 54.3999C250.821 54.5185 250.73 54.6702 250.73 54.8647C250.73 55.0544 250.826 55.2109 251.013 55.3247C251.206 55.4386 251.479 55.4955 251.834 55.4955C252.094 55.4955 252.324 55.4481 252.526 55.3579C252.727 55.2678 252.862 55.154 252.929 55.0212V54.6086H252.924Z" fill="#2D1D38"/>
<path d="M257.159 50.9658V52.9862H259.685V50.9658H261.101V56.6524H259.685V54.4755H257.159V56.6524H255.738V50.9658H257.159Z" fill="#2D1D38"/>
<path d="M268.237 53.8161C268.237 54.2525 268.156 54.6508 267.992 55.0113C267.829 55.3765 267.608 55.6895 267.33 55.9551C267.051 56.2207 266.729 56.4294 266.365 56.5764C266 56.7282 265.611 56.8041 265.203 56.8041C264.795 56.8041 264.406 56.7282 264.041 56.5764C263.676 56.4247 263.355 56.216 263.076 55.9551C262.798 55.6895 262.577 55.3765 262.409 55.0113C262.246 54.6461 262.164 54.2477 262.164 53.8161C262.164 53.3893 262.246 52.9909 262.409 52.6257C262.572 52.2557 262.793 51.938 263.076 51.6724C263.355 51.402 263.676 51.1934 264.041 51.0416C264.406 50.8898 264.795 50.8139 265.203 50.8139C265.611 50.8139 266 50.8898 266.365 51.0416C266.729 51.1934 267.051 51.402 267.33 51.6724C267.608 51.9427 267.829 52.2605 267.992 52.6257C268.156 52.9909 268.237 53.3893 268.237 53.8161ZM263.715 53.1996C263.633 53.3893 263.59 53.5932 263.59 53.8114C263.59 54.0343 263.628 54.2335 263.715 54.4185C263.797 54.6034 263.911 54.7599 264.056 54.8927C264.2 55.0255 264.372 55.1299 264.569 55.201C264.766 55.2722 264.978 55.3101 265.198 55.3101C265.424 55.3101 265.63 55.2722 265.822 55.201C266.014 55.1251 266.187 55.0255 266.331 54.8927C266.475 54.7599 266.59 54.6034 266.677 54.4185C266.763 54.2335 266.806 54.0343 266.806 53.8114C266.806 53.5932 266.763 53.3845 266.677 53.1996C266.59 53.0098 266.475 52.8533 266.331 52.7205C266.187 52.5878 266.014 52.4834 265.822 52.4122C265.63 52.3411 265.419 52.3032 265.198 52.3032C264.978 52.3032 264.766 52.3411 264.569 52.4122C264.372 52.4834 264.2 52.5878 264.056 52.7205C263.911 52.8533 263.797 53.0146 263.715 53.1996Z" fill="#2D1D38"/>
<path d="M271.512 50.9658C271.805 50.9658 272.074 50.999 272.328 51.0654C272.583 51.1318 272.799 51.2314 272.986 51.369C273.173 51.5065 273.317 51.6725 273.428 51.8765C273.538 52.0804 273.591 52.3176 273.591 52.5879C273.591 52.825 273.557 53.0147 273.485 53.1665C273.413 53.3182 273.308 53.4606 273.169 53.5933C273.385 53.7309 273.562 53.9064 273.701 54.1198C273.841 54.3285 273.908 54.5941 273.908 54.9213C273.908 55.2012 273.85 55.4478 273.735 55.6612C273.62 55.8746 273.466 56.0549 273.269 56.2019C273.077 56.3489 272.851 56.4627 272.592 56.5386C272.333 56.6145 272.064 56.6524 271.781 56.6524H269.299V50.9658H271.512ZM270.662 52.2701V53.2329H271.666C271.839 53.2329 271.973 53.1854 272.069 53.0906C272.165 52.9957 272.213 52.8867 272.213 52.7586C272.213 52.6258 272.165 52.512 272.069 52.4171C271.973 52.3223 271.834 52.2749 271.656 52.2749H270.662V52.2701ZM270.662 54.3664V55.3482H271.968C272.132 55.3482 272.261 55.3007 272.362 55.2106C272.458 55.1205 272.506 54.9972 272.506 54.8502C272.506 54.7269 272.458 54.613 272.362 54.5135C272.266 54.4138 272.132 54.3664 271.958 54.3664H270.662Z" fill="#2D1D38"/>
<path d="M279.123 50.9658V56.6524H277.702V54.964H277.231L276.07 56.6524H274.428L275.734 54.7553C275.398 54.5846 275.139 54.3522 274.951 54.0581C274.764 53.7641 274.673 53.4084 274.673 52.9862C274.673 52.6685 274.73 52.3887 274.841 52.1373C274.951 51.8859 275.105 51.6773 275.297 51.5018C275.489 51.331 275.719 51.1982 275.988 51.1034C276.257 51.0133 276.545 50.9658 276.848 50.9658H279.123ZM276.746 52.3792C276.535 52.3792 276.372 52.4409 276.257 52.5594C276.137 52.6827 276.079 52.825 276.079 52.9957C276.079 53.1713 276.142 53.3135 276.271 53.4226C276.396 53.5317 276.559 53.5839 276.751 53.5839H277.711V52.3792H276.746Z" fill="#2D1D38"/>
<path d="M285.02 52.4551H283.244V56.6524H281.828V52.4551H280.047V50.9658H285.02V52.4551Z" fill="#2D1D38"/>
<path d="M290.729 55.7891C290.557 56.0689 290.278 56.3061 289.889 56.5053C289.5 56.7045 289.049 56.8041 288.535 56.8041C288.132 56.8041 287.753 56.7282 287.388 56.5812C287.028 56.4341 286.707 56.2302 286.428 55.9646C286.15 55.699 285.929 55.3812 285.761 55.016C285.597 54.6508 285.516 54.243 285.516 53.8019C285.516 53.3608 285.597 52.9529 285.761 52.5878C285.924 52.2178 286.145 51.9048 286.428 51.6392C286.711 51.3736 287.028 51.1697 287.388 51.0273C287.748 50.8851 288.132 50.8139 288.535 50.8139C289.049 50.8139 289.495 50.9135 289.87 51.1127C290.245 51.3119 290.518 51.5491 290.681 51.8194L290.278 52.9909C290.129 52.8154 289.918 52.6541 289.639 52.5166C289.366 52.3791 289.049 52.3079 288.689 52.3079C288.166 52.3079 287.753 52.4454 287.436 52.7205C287.124 52.9956 286.966 53.3608 286.966 53.8066C286.966 54.2572 287.124 54.6177 287.436 54.8975C287.748 55.1773 288.166 55.3149 288.689 55.3149C289.054 55.3149 289.376 55.2437 289.649 55.0967C289.923 54.9497 290.139 54.7884 290.298 54.6129L290.729 55.7891Z" fill="#2D1D38"/>
<path d="M295.974 50.9658V56.6524H294.554V54.964H294.083L292.921 56.6524H291.279L292.585 54.7553C292.249 54.5846 291.99 54.3522 291.803 54.0581C291.615 53.7641 291.524 53.4084 291.524 52.9862C291.524 52.6685 291.582 52.3887 291.692 52.1373C291.803 51.8859 291.956 51.6773 292.149 51.5018C292.34 51.331 292.576 51.1982 292.84 51.1034C293.109 51.0133 293.397 50.9658 293.699 50.9658H295.974ZM293.594 52.3792C293.382 52.3792 293.219 52.4409 293.104 52.5594C292.984 52.6827 292.926 52.825 292.926 52.9957C292.926 53.1713 292.989 53.3135 293.118 53.4226C293.243 53.5317 293.406 53.5839 293.598 53.5839H294.558V52.3792H293.594Z" fill="#2D1D38"/>
<path d="M183.76 50.9706L186.141 56.6572L184.432 56.6524L183.079 53.3183L181.729 56.6524H180.016L182.402 50.9658L183.76 50.9706Z" fill="#2D1D38"/>
<path d="M114.914 31.1473V21.958H113.042L109.253 28.226V21.958H107.396V31.1473H109.253H109.272L113.04 24.9064V31.1473H114.914ZM108.744 20.2431C110.158 21.3084 112.159 21.3084 113.572 20.2431L112.805 19.1159C111.788 19.8525 110.525 19.8525 109.514 19.1159L108.744 20.2431Z" fill="#2D1D38"/>
<path d="M53.9568 28.0308V24.8427C53.9568 22.832 52.8856 21.6893 50.896 21.6893C50.1458 21.6893 48.8561 21.989 48.3283 22.4221C48.1581 22.1379 47.9841 21.8382 47.5954 21.6952L46.4121 22.7894C46.8626 23.0891 46.8781 23.6827 46.8781 23.9456V34.0822H48.7962V30.8535C49.3782 31.1377 50.2947 31.2518 50.7452 31.2518C52.5453 31.2479 53.9568 30.1169 53.9568 28.0308ZM52.0175 28.2319C52.0175 29.042 51.2131 29.5272 50.4803 29.5272C49.8828 29.5272 49.1732 29.2817 48.7962 29.0226V24.2124V24.0442C49.2273 23.6111 50.0878 23.3675 50.5963 23.3675C51.3291 23.3675 52.0232 23.8953 52.0232 24.6996V28.2319H52.0175Z" fill="#2D1D38"/>
<path d="M71.2855 31.1007V21.8341H64.9396V27.5723C64.9396 28.7382 64.2126 29.7106 63.1917 29.7377C62.7238 29.7532 62.0006 29.4361 62.0006 28.7208V24.8173C62.0006 22.9013 60.9855 21.6833 58.8238 21.6833C57.3582 21.6833 56.2135 22.3039 55.5948 22.9439L56.608 24.189C57.246 23.5683 58.1683 23.3267 58.6363 23.3267C59.2743 23.3267 60.0787 23.607 60.0787 24.4712V25.4572H58.5067C56.2561 25.4572 55.3125 26.8879 55.3125 28.3882C55.3125 29.8286 56.1014 31.2399 58.3733 31.2399C59.0694 31.2399 59.9627 30.8881 60.5118 30.3506C61.4283 31.1781 62.2713 31.3308 63.2342 31.2979C65.421 31.2264 66.8171 30.0528 66.7649 27.5008V23.4214H69.4041V31.1007H71.2855ZM60.0787 28.9721C59.6224 29.5656 58.7832 29.7338 58.1509 29.6217C57.6579 29.5308 57.248 29.0359 57.2402 28.5062C57.2248 27.8237 57.6579 27.0793 58.6595 27.0793H60.0806V28.9721H60.0787Z" fill="#2D1D38"/>
<path d="M96.6663 31.1067L93.2265 26.2173L96.4381 21.8594H94.2552L91.846 25.4806H90.6665V21.8362H88.7871V31.1067H90.6317L90.6491 27.0641H91.8208L94.4717 31.1067H96.6663Z" fill="#2D1D38"/>
<path d="M73.2266 31.1222V21.8362H75.1485V24.9799H76.5058C78.7584 24.9799 79.9495 26.3564 79.9321 27.936C79.9147 29.5175 78.799 31.1222 76.5271 31.1222H73.2266ZM75.1485 29.5175H76.7649C77.6138 29.5175 77.9483 28.5895 77.9541 27.9669C77.9541 27.3463 77.5983 26.5653 76.7379 26.5653H75.1543V29.5156H75.1485V29.5175Z" fill="#2D1D38"/>
<path d="M87.5645 30.0588L86.7794 28.6648C85.687 29.4324 85.0315 29.6605 84.4863 29.6605C83.7187 29.6605 82.9491 29.27 82.9491 28.4599V24.8696C82.9491 24.0421 83.7187 23.4641 84.5984 23.4641C85.1611 23.4641 85.9306 23.8024 86.4933 24.3998L87.4891 23.1373C86.8162 22.3098 85.8552 21.7105 84.3722 21.7105C82.4773 21.7105 81.0098 22.8724 81.0098 24.8812V28.3516C81.0098 30.3198 82.5315 31.2459 84.4089 31.2459C85.9654 31.2459 87.0211 30.5092 87.5645 30.0588Z" fill="#2D1D38"/>
<path d="M105.314 31.0992V21.8615H103.429L99.6198 28.1605V21.8615H97.7578V31.0992H99.6198H99.6372L103.429 24.8293V31.0992H105.314Z" fill="#2D1D38"/>
<path d="M46.3641 19.0019H44.214L42.557 24.512C42.5241 24.6164 42.4854 24.7266 42.4622 24.833C42.439 24.9393 42.4178 25.034 42.4062 25.1094C42.3965 25.181 42.3868 25.2254 42.3868 25.2312C42.3868 25.2312 42.3849 25.1887 42.3694 25.1172C42.3578 25.0476 42.3404 24.9548 42.3134 24.8446C42.2902 24.7382 42.2631 24.6319 42.2186 24.5333L39.7669 19H37.5781L41.5013 27.6248L41.2519 28.2492C40.9348 28.9433 40.1072 29.6993 38.63 29.765L38.862 31.2595C41.0372 31.3098 42.4719 30.3431 43.023 28.7268L46.3641 19.0019Z" fill="#2D1D38"/>
<path d="M140 46.7748V37.5295H138.118L134.307 43.8322V37.5295H132.445V46.771H134.307H134.327L138.114 40.5011V46.771H139.998V46.7748H140ZM133.795 35.8068C135.216 36.8779 137.229 36.8779 138.65 35.8068L137.879 34.6739C136.854 35.4144 135.591 35.4144 134.568 34.6739L133.795 35.8068Z" fill="#2D1D38"/>
<path d="M130.502 37.5313H128.619V46.7708H130.502V37.5313Z" fill="#2D1D38"/>
<path d="M120.877 46.8154V37.5294H122.799V40.6731H124.156C126.409 40.6731 127.6 42.0496 127.582 43.6272C127.565 45.2068 126.449 46.8115 124.183 46.8115H120.879V46.8154H120.877ZM122.799 45.2107H124.411C125.26 45.2107 125.595 44.2827 125.595 43.6601C125.595 43.0395 125.243 42.2584 124.382 42.2584H122.793V45.2087H122.799V45.2107Z" fill="#2D1D38"/>
<path d="M48.4511 43.7063V40.5182C48.4511 38.5133 47.5249 37.3649 45.5353 37.3649C44.9978 37.3649 44.4138 37.5215 44.0078 37.7632V36.0212H42.0859V37.7632C41.6798 37.5157 41.0959 37.3649 40.5584 37.3649C38.5726 37.3649 37.6426 38.5133 37.6426 40.5182V43.7063C37.6426 45.7866 38.9071 46.9177 40.7072 46.9177C41.1578 46.9177 41.8848 46.6973 42.0859 46.5194V49.752H44.0078V46.5194C44.2089 46.6973 44.9359 46.9177 45.3864 46.9177C47.1846 46.9177 48.4511 45.7905 48.4511 43.7063ZM42.0859 39.6115V39.6134V39.6192V39.625V39.6308V39.6366V39.6385V39.6443V39.6501V39.6559V39.6617V39.6637V39.6695V39.6753V39.6811V39.6869V39.6888V39.6946V39.7004V39.7062V39.712V39.7139V39.7197V39.7255V39.7313V39.7371V39.7391V39.7449V39.7507V39.7565V39.7623V39.7642V39.77V39.7758V39.7816V39.7874V39.7893V39.7951V39.8009V39.8067V39.8125V39.8183V39.8203V39.8261V39.8319V39.8377V39.8435V39.8454V39.8512V39.857V39.8628V39.8686V39.8705V39.8763V39.8821V39.8879V39.8937V39.8957V39.9015V39.9073V44.7175C41.9022 45.0017 41.5735 45.2279 40.9702 45.2279C40.2374 45.2279 39.5819 44.7407 39.5819 43.9306V40.3655C39.5819 39.5631 40.1272 39.0353 40.86 39.0353C41.3666 39.0431 41.9292 39.3253 42.0859 39.6115ZM46.5117 43.9074C46.5117 44.7117 45.8563 45.2028 45.1234 45.2028C44.5241 45.2028 44.1896 44.9804 44.0078 44.6962V39.8879V39.886V39.8802V39.8744V39.8686V39.8628V39.8551V39.8493V39.8435V39.8377V39.8357V39.8299V39.8241V39.8183V39.8125V39.8106V39.8048V39.799V39.7932V39.7874V39.7855V39.7797V39.7739V39.7681V39.7623V39.7545V39.7487V39.7429V39.7371V39.7313V39.7294V39.7236V39.7178V39.712V39.7043V39.6985V39.6927V39.6869V39.6811V39.6791V39.6733V39.6675V39.6559V39.6501V39.6443V39.6385V39.6327V39.6308V39.625V39.6192V39.6134V39.6057V39.5999V39.5941V39.5883V39.5825V39.5805C44.1644 39.2925 44.7251 39.0102 45.2356 39.0102C45.9684 39.0102 46.5079 39.538 46.5079 40.3423V43.8745H46.5117V43.9074Z" fill="#2D1D38"/>
<path d="M57.0508 45.696L56.2445 44.246C55.3241 44.9961 54.425 45.2378 53.6748 45.2378C52.7564 45.2378 52.0448 44.7332 52.0448 43.7356V42.8791H56.8497V40.6286C56.8497 38.2796 55.3666 37.3806 53.5801 37.3806C51.5344 37.3806 50.1074 38.4304 50.1074 40.7408V43.8187C50.1074 45.8816 51.459 46.9179 53.524 46.9179C55.0457 46.9179 55.966 46.4288 57.0508 45.696ZM54.9123 40.1472V41.2976H52.0448V40.2806C52.0448 39.4532 52.7544 38.9853 53.5801 38.9853C54.0905 38.9853 54.9123 39.3256 54.9123 40.1472Z" fill="#2D1D38"/>
<path d="M66.0788 45.2144V37.5331H59.731V42.643C59.7368 43.8089 59.0523 45.1874 58.0294 45.2144H57.8516V49.0425H59.6846V46.7998H65.2532V49.0425H67.1306V45.2144H66.0788ZM60.8118 45.2144C61.2855 44.6963 61.5794 43.7141 61.5562 42.7049V39.1204H64.1955V45.2144H60.8118Z" fill="#2D1D38"/>
<path d="M118.929 46.7747V37.5313H117.052V41.1428H113.243V37.5313H111.377V46.7747H113.243V42.7243H117.052V46.7747H118.929Z" fill="#2D1D38"/>
<path d="M84.0017 43.7296V40.5415C84.0017 38.5366 82.9305 37.3881 80.937 37.3881C80.1868 37.3881 78.8971 37.6878 78.3693 38.1209C78.201 37.8367 78.0251 37.537 77.6365 37.3939L76.4531 38.4882C76.9036 38.7879 76.9191 39.3814 76.9191 39.6444V49.7752H78.841V46.5446C79.4211 46.8326 80.3415 46.9428 80.7862 46.9428C82.5902 46.939 84.0017 45.8118 84.0017 43.7296ZM82.0643 43.9287C82.0643 44.733 81.2599 45.2241 80.5271 45.2241C79.9296 45.2241 79.22 44.9786 78.841 44.7175V39.9073V39.7372C79.2742 39.3041 80.1307 39.0644 80.6412 39.0644C81.372 39.0644 82.0643 39.5922 82.0643 40.3945V43.9287Z" fill="#2D1D38"/>
<path d="M101.329 46.7941V37.5275H94.9826V43.2657C94.9846 44.4315 94.2556 45.404 93.2347 45.4311C92.7668 45.4466 92.0436 45.1314 92.0436 44.4141V40.5107C92.0436 38.6005 91.0227 37.3825 88.8668 37.3825C87.4012 37.3825 86.2566 37.9992 85.6417 38.6392L86.6568 39.8862C87.2949 39.2656 88.2172 39.0239 88.6851 39.0239C89.3232 39.0239 90.1275 39.3042 90.1275 40.1646V41.1525H88.5555C86.303 41.1525 85.3613 42.5813 85.3613 44.0816C85.3613 45.5239 86.1502 46.9352 88.4241 46.9352C89.1182 46.9352 90.0154 46.5834 90.5626 46.0459C91.4791 46.8734 92.3221 47.0242 93.2888 46.9932C95.4718 46.9256 96.8717 45.7462 96.8176 43.2V39.1109H99.4568V46.7902H101.329V46.7941ZM90.1198 44.6655C89.414 45.5819 87.3065 45.7037 87.2794 44.1976C87.2639 43.5151 87.697 42.7708 88.6986 42.7708H90.1198V44.6655Z" fill="#2D1D38"/>
<path d="M103.271 46.8153V37.5294H105.193V40.673H106.551C108.803 40.673 109.994 42.0496 109.977 43.6272C109.96 45.2068 108.844 46.8115 106.572 46.8115H103.271V46.8153ZM105.193 45.2106H106.806C107.655 45.2106 107.989 44.2826 107.995 43.6601C107.995 43.0395 107.639 42.2584 106.779 42.2584H105.195V45.2106H105.193Z" fill="#2D1D38"/>
<path d="M75.2988 45.696L74.4886 44.246C73.5702 44.9961 72.6711 45.2378 71.9209 45.2378C71.0005 45.2378 70.2909 44.7332 70.2909 43.7356V42.8791H75.0958V40.6286C75.0958 38.2796 73.6069 37.3806 71.8261 37.3806C69.7805 37.3806 68.3535 38.4304 68.3535 40.7408V43.8187C68.3535 45.8816 69.7051 46.9179 71.7701 46.9179C73.2898 46.9179 74.2102 46.4288 75.2988 45.696ZM73.1564 40.1472V41.2976H70.2948V40.2806C70.2948 39.4532 71.0025 38.9853 71.83 38.9853C72.3347 38.9853 73.1564 39.3256 73.1564 40.1472Z" fill="#2D1D38"/>
<path d="M45.5701 53.2282H43.4799L41.5851 60.4145C41.5851 60.4145 41.6025 59.8693 41.3801 59.0998L39.7675 53.2282L37.6406 53.2456C37.6406 53.2456 40.1194 61.0777 40.7014 62.4445C40.4133 63.6606 39.754 64.4649 38.3522 64.5983L38.5359 66C40.6608 65.9981 41.8654 64.8535 42.3082 63.4422L45.5701 53.2282Z" fill="#2D1D38"/>
<path d="M54.3278 62.4716V53.2282H52.4445V56.8397H48.6393V53.2282H46.7715V62.4716H48.6393V58.4212H52.4445V62.4716H54.3278Z" fill="#2D1D38"/>
<path d="M63.8259 62.4716V53.2282H61.9426L58.1374 59.529V53.2282H56.2734V62.4716H58.1374H58.1548L61.9426 56.1959V62.4716H63.8259Z" fill="#2D1D38"/>
<path d="M65.7734 62.4716V53.2282H69.074C71.344 53.2282 72.0555 54.6086 72.0226 55.6662C71.9898 56.7256 71.4058 57.2534 70.8935 57.5202C71.46 57.6769 72.4654 58.3922 72.4616 59.7204C72.4616 61.0525 71.4735 62.4677 69.2055 62.4677H65.7734V62.4716ZM67.6954 54.8309V56.8262H69.074C69.8435 56.8262 70.0543 56.3042 70.0485 55.8402C70.0427 55.38 69.7546 54.8309 69.1011 54.8309H67.6954ZM67.6954 60.865H69.3118C70.1607 60.865 70.4952 60.1864 70.4952 59.5696C70.4952 58.949 70.1394 58.398 69.2789 58.398H67.6954V60.865Z" fill="#2D1D38"/>
<path d="M107.82 53.2282V54.8116H110.16L110.154 62.4929H110.276H112.035H112.159L112.157 54.8116H114.491V53.2282H107.82Z" fill="#2D1D38"/>
<path d="M123.174 53.2282V54.8116H125.508V62.4929H125.629H127.391H127.511V54.8116H129.846V53.2282H123.174Z" fill="#2D1D38"/>
<path d="M106.425 62.4716V53.2282H104.546L100.737 59.529V53.2282H98.8711V62.4716H100.737H100.754L104.546 56.1959V62.4716H106.425Z" fill="#2D1D38"/>
<path d="M89.4353 59.4035V56.2153C89.4353 54.2046 88.3641 53.062 86.3707 53.062C85.6205 53.062 84.3308 53.3617 83.8029 53.7948C83.6328 53.5067 83.4588 53.2109 83.0759 53.0678L81.8926 54.1621C82.3431 54.4618 82.3586 55.0553 82.3586 55.3183V65.4452H84.2766V62.2165C84.8586 62.5046 85.7771 62.6148 86.2257 62.6148C88.0238 62.6148 89.4353 61.4838 89.4353 59.4035ZM87.4979 59.5987C87.4979 60.4088 86.6936 60.8941 85.9608 60.8941C85.3594 60.8941 84.6479 60.6544 84.2747 60.3895V55.5793V55.4111C84.7059 54.978 85.5644 54.7344 86.0729 54.7344C86.8057 54.7344 87.4998 55.2622 87.4998 56.0665V59.5987H87.4979Z" fill="#2D1D38"/>
<path d="M97.6505 61.4084L96.8636 60.0145C95.775 60.782 95.1176 61.0101 94.5781 61.0101C93.8105 61.0101 93.0409 60.6196 93.0409 59.8095V56.2193C93.0409 55.3976 93.8105 54.8137 94.6903 54.8137C95.2529 54.8137 96.0225 55.152 96.5851 55.7495L97.5809 54.487C96.908 53.6595 95.9471 53.0601 94.4698 53.0601C92.575 53.0601 91.1055 54.2221 91.1055 56.2309V59.7013C91.1055 61.6694 92.6272 62.5955 94.5046 62.5955C96.0515 62.5974 97.1053 61.8589 97.6505 61.4084Z" fill="#2D1D38"/>
<path d="M122.424 61.3716L121.614 59.9216C120.695 60.6718 119.796 60.9173 119.046 60.9173C118.126 60.9173 117.416 60.4108 117.416 59.417V58.5605H122.221V56.3101C122.221 53.9649 120.732 53.062 118.951 53.062C116.905 53.062 115.479 54.1118 115.479 56.4222V59.5001C115.479 61.563 116.83 62.5993 118.895 62.5993C120.413 62.5974 121.335 62.0986 122.424 61.3716ZM120.28 55.8209V56.9694H117.418V55.9485C117.418 55.1249 118.126 54.6532 118.953 54.6532C119.454 54.6609 120.28 54.9993 120.28 55.8209Z" fill="#2D1D38"/>
<path d="M80.7715 61.3716L79.9652 59.9216C79.0448 60.6718 78.1457 60.9173 77.3955 60.9173C76.4771 60.9173 75.7655 60.4108 75.7655 59.417V58.5605H80.5704V56.3101C80.5704 53.9649 79.0815 53.062 77.3008 53.062C75.2551 53.062 73.8281 54.1118 73.8281 56.4222V59.5001C73.8281 61.563 75.1816 62.5993 77.2447 62.5993C78.7664 62.5974 79.6867 62.0986 80.7715 61.3716ZM78.633 55.8209V56.9694H75.7713V55.9485C75.7713 55.1249 76.479 54.6532 77.3066 54.6532C77.8054 54.6609 78.633 54.9993 78.633 55.8209Z" fill="#2D1D38"/>
<path fill-rule="evenodd" clip-rule="evenodd" d="M0 20.8908C3.81101 20.8966 5.42745 23.5472 7.1367 26.4009L21.1684 50.4578C21.8297 51.6603 22.4813 53.1123 22.4639 54.4676C22.4097 58.0057 17.8195 59.2991 15.0681 59.4383C13.0533 59.5369 11.0657 59.0671 9.27907 58.2609L8.16341 59.6993C8.81501 62.4775 11.3828 65.8435 14.9153 65.8165C21.0485 65.772 24.2679 60.1672 26.7351 55.6005L31.3021 47.1363L18.0477 24.4057C16.8237 22.3679 18.8327 20.8908 20.9693 20.8811L21.4468 19.0019H0.487256L0 20.8908Z" fill="#2D1D38"/>
</svg>
